<svg id="Layer_1" data-name="Layer 1" xmlns="http://www.w3.org/2000/svg" viewBox="0 0 173 173"><defs><style>.cls-1{fill:#417c7b;}.cls-2{fill:#a02a2a;}.cls-3{fill:#6ea3a3;}.cls-4{fill:#9e9e9e;}.cls-5{fill:#c43030;}.cls-6{fill:#d85b5b;}.cls-7{fill:#454545;}.cls-8{fill:#484746;}.cls-9{fill:#444545;}.cls-10{fill:#f7f7f5;}</style></defs><path class="cls-1" d="M84.73,15.94c0,.18,0,.36,0,.55V82.56a2.22,2.22,0,0,1-.93-.43L33.35,53c-2.12-1.22-4.22-2.46-6.33-3.69a1.84,1.84,0,0,0,.25-.23c.72-1.23,1.52-2.4,2.32-3.56a70.91,70.91,0,0,1,6.6-8.06c1.36-1.45,2.85-2.78,4.34-4.1a66.35,66.35,0,0,1,5.92-4.67A71.94,71.94,0,0,1,58.24,22a70.4,70.4,0,0,1,10.65-3.83A64.43,64.43,0,0,1,79,16.19c1.06-.1,1.06-.14,1.06.93V20.7C81.72,19,83.14,17.39,84.73,15.94Z"/><path class="cls-2" d="M146.22,49.28,138,54.09,89.35,82.16c-.27.16-.55.3-.84.46a1.81,1.81,0,0,1-.09-.91q0-32.19,0-64.39c0-.36,0-.73-.06-1.09a10.27,10.27,0,0,0,1.09.1,51.57,51.57,0,0,1,7.45.56A65.5,65.5,0,0,1,108,19.4,68,68,0,0,1,120.91,25,71.25,71.25,0,0,1,135.7,36.25c1.12,1.08,2.13,2.27,3.18,3.42a66.58,66.58,0,0,1,4.2,5.25c.31.42.21.58-.21.81-1,.55-2,1.16-3,1.81l.77.23C142.47,48.27,144.37,48.68,146.22,49.28Z"/><path class="cls-3" d="M25,52.19,51.42,67.45l30.8,17.78a1.63,1.63,0,0,1,.66.5L25.25,119c-.42-.76-.87-1.51-1.26-2.29a69.67,69.67,0,0,1-5.91-16.57,68.18,68.18,0,0,1-1.65-13.87c0-1.69,0-3.38.1-5.08a64.54,64.54,0,0,1,.91-8.1A66.77,66.77,0,0,1,22.39,57c.38-.83.37-.84,1.17-.44l3.52,1.74c-.19-.56-.33-.94-.46-1.32Z"/><path class="cls-4" d="M27.58,121.81c.06-.27.32-.32.5-.43l24.55-14.16,24.24-14,7.21-4.16c.62-.35.65-.34.65.4v65.49c0,.28.13.6-.13.85l-2.4-.12a58,58,0,0,1-8.52-1,68,68,0,0,1-20.15-7.29,71,71,0,0,1-23.09-20.27c-1-1.35-1-1.35.5-2.19.77-.43,1.52-.9,2.42-1.43-1.8-.46-3.42-.87-5-1.31C28.08,122.08,27.71,122.19,27.58,121.81Z"/><path class="cls-5" d="M147.21,118.72l-7.45-4.27q-24.51-14.13-49-28.28a1.63,1.63,0,0,1-.64-.46l7.19-4.16,49.6-28.63c.21-.13.44-.24.66-.35a1.12,1.12,0,0,1,.17.21,67,67,0,0,1,8.65,30.4A64.06,64.06,0,0,1,156,93.54a68.78,68.78,0,0,1-1.91,9.95,70.56,70.56,0,0,1-3.94,10.9c-.25.53-.46.59-1,.32-1-.55-2.14-1-3.22-1.55-.19-.09-.4-.35-.6-.14s.06.38.11.57.08.17.11.26C146.08,115.48,146.8,117,147.21,118.72Z"/><path class="cls-6" d="M88.22,155.25c0-.25,0-.5,0-.75V88.87c.28-.09.43.09.6.18l56.93,32.87.24.15c-.07.14-.12.3-.2.43a72.65,72.65,0,0,1-8.3,10.67,73.27,73.27,0,0,1-19.18,14.46,69.86,69.86,0,0,1-15.79,5.91,81.35,81.35,0,0,1-8.91,1.55c-.56.07-.88,0-.84-.73.06-1.18,0-2.36,0-3.73C91.2,152.3,89.76,153.82,88.22,155.25Z"/><path class="cls-7" d="M25,52.19,26.62,57c.13.38.27.76.46,1.32l-3.52-1.74c-.8-.4-.79-.39-1.17.44A66.77,66.77,0,0,0,17.44,73.1a64.54,64.54,0,0,0-.91,8.1c-.1,1.7-.12,3.39-.1,5.08a68.18,68.18,0,0,0,1.65,13.87A69.67,69.67,0,0,0,24,116.72c.39.78.84,1.53,1.26,2.29-.34.49-.93.63-1.4.92-.66.41-1.38.74-2,1.17-.44.29-.62.19-.85-.25A73.49,73.49,0,0,1,16,109.7a75.83,75.83,0,0,1-4.17-22.12v-5.1a74.07,74.07,0,0,1,3.6-20.28,69.76,69.76,0,0,1,3-7.54c.21-.45.12-.59-.3-.78-1.17-.55-2.33-1.14-3.62-1.78l5.83-2c1-.34,2.05-.66,3.06-1,.32-.12.43-.05.54.26C24.24,50.31,24.61,51.25,25,52.19Z"/><path class="cls-8" d="M146.22,49.28c-1.85-.6-3.75-1-5.62-1.51l-.77-.23c1.08-.65,2-1.26,3-1.81.42-.23.52-.39.21-.81a66.58,66.58,0,0,0-4.2-5.25c-1-1.15-2.06-2.34-3.18-3.42A71.25,71.25,0,0,0,120.91,25,68,68,0,0,0,108,19.4a65.5,65.5,0,0,0-11.14-2.51,51.57,51.57,0,0,0-7.45-.56,10.27,10.27,0,0,1-1.09-.1c-.28,0-.22-.25-.22-.42,0-1.26.05-2.52.05-3.78,0-.54.37-.36.62-.36a74.18,74.18,0,0,1,8,.57,71.88,71.88,0,0,1,20.66,5.89A73.6,73.6,0,0,1,139,33.06a70.88,70.88,0,0,1,8.07,9.56c.26.37.44.45.85.19,1.27-.77,2.56-1.5,4-2.33-.31,1.14-.59,2.14-.86,3.14-.55,2-1.11,3.92-1.63,5.89-.11.43-.25.48-.66.37A18.24,18.24,0,0,0,146.22,49.28Z"/><path class="cls-7" d="M27.58,121.81c.13.38.5.27.75.34,1.61.44,3.23.85,5,1.31-.9.53-1.65,1-2.42,1.43-1.48.84-1.49.84-.5,2.19a71,71,0,0,0,23.09,20.27,68,68,0,0,0,20.15,7.29,58,58,0,0,0,8.52,1l2.4.12a27.47,27.47,0,0,0-.11,3.85c0,.64-.21.74-.78.72A71,71,0,0,1,58.85,155a75.08,75.08,0,0,1-33-26.37c-.33-.46-.54-.49-1-.2-1.14.71-2.32,1.37-3.64,2.14.25-.92.46-1.69.68-2.47.6-2.18,1.22-4.36,1.81-6.55.1-.4.22-.52.65-.39.81.25,1.65.42,2.46.64A1.34,1.34,0,0,0,27.58,121.81Z"/><path class="cls-7" d="M88.22,155.25c1.54-1.43,3-2.95,4.53-4.62,0,1.37,0,2.55,0,3.73,0,.72.28.8.84.73a81.35,81.35,0,0,0,8.91-1.55,69.86,69.86,0,0,0,15.79-5.91,73.27,73.27,0,0,0,19.18-14.46,72.65,72.65,0,0,0,8.3-10.67c.08-.13.13-.29.2-.43a18.55,18.55,0,0,1,2.82,1.65c1.2.72,1.2.75.44,1.88-11.3,16.91-26.79,27.85-46.59,32.62a61.35,61.35,0,0,1-8.95,1.44c-.93.09-.93.09-.93,1v3.82c-1.07-1-2.22-2-3.32-3.13s-2.07-2.15-3.13-3.2c-.35-.34-.33-.53,0-.87A18.73,18.73,0,0,0,88.22,155.25Z"/><path class="cls-7" d="M147.21,118.72c-.41-1.68-1.13-3.24-1.65-4.87,0-.09-.09-.17-.11-.26s-.25-.42-.11-.57.41,0,.6.14c1.08.5,2.17,1,3.22,1.55.5.27.71.21,1-.32a70.56,70.56,0,0,0,3.94-10.9A68.78,68.78,0,0,0,156,93.54a64.06,64.06,0,0,0,.42-10.36,67,67,0,0,0-8.65-30.4,1.12,1.12,0,0,0-.17-.21,17.44,17.44,0,0,1,2.74-1.67c1.25-.74,1.26-.72,2,.56a70.36,70.36,0,0,1,8.1,24.74,72.39,72.39,0,0,1-6.13,40.17c-.24.54-.2.77.36,1,1,.43,2,1,3.18,1.53l-2.75.94c-2,.68-4,1.34-6,2.06-.49.18-.63,0-.77-.39A17.71,17.71,0,0,0,147.21,118.72Z"/><path class="cls-9" d="M84.73,15.94c-1.59,1.45-3,3.07-4.65,4.76V17.12c0-1.07,0-1-1.06-.93a64.43,64.43,0,0,0-10.13,1.93A70.4,70.4,0,0,0,58.24,22a71.94,71.94,0,0,0-11.79,6.73,66.35,66.35,0,0,0-5.92,4.67c-1.49,1.32-3,2.65-4.34,4.1a70.91,70.91,0,0,0-6.6,8.06c-.8,1.16-1.6,2.33-2.32,3.56a1.84,1.84,0,0,1-.25.23c-1.2-.72-2.39-1.45-3.59-2.15-.44-.26-.09-.47,0-.66a67.93,67.93,0,0,1,6-8.33A75.2,75.2,0,0,1,63.61,14.92a70.86,70.86,0,0,1,15.83-3.41c.45,0,.68-.13.66-.68-.06-1.38,0-2.76,0-4.17.28,0,.39.24.53.39,2,2,3.94,4.1,5.94,6.13.36.36.29.54,0,.86C85.9,14.65,85.32,15.3,84.73,15.94Z"/><path class="cls-10" d="M56.24,47.91V44.22h1.58a2.6,2.6,0,0,1,.86.1.82.82,0,0,1,.43.35,1.15,1.15,0,0,1,.16.58,1,1,0,0,1-.25.69,1.12,1.12,0,0,1-.73.34,1.91,1.91,0,0,1,.4.31,4.86,4.86,0,0,1,.43.6l.45.72h-.9l-.53-.8a5.23,5.23,0,0,0-.4-.54.54.54,0,0,0-.22-.16,1.62,1.62,0,0,0-.38,0H57v1.54ZM57,45.78h.55a3,3,0,0,0,.67,0,.42.42,0,0,0,.21-.16.49.49,0,0,0,.08-.28.44.44,0,0,0-.1-.3.44.44,0,0,0-.28-.14,4.69,4.69,0,0,0-.55,0H57Z"/><path class="cls-10" d="M61.52,47.06l.7.12a1.1,1.1,0,0,1-.43.59,1.21,1.21,0,0,1-.73.21,1.23,1.23,0,0,1-1-.46,1.56,1.56,0,0,1-.26-.92,1.5,1.5,0,0,1,.35-1.05,1.13,1.13,0,0,1,.88-.37,1.19,1.19,0,0,1,.94.39,1.75,1.75,0,0,1,.33,1.21H60.49a.69.69,0,0,0,.17.49.52.52,0,0,0,.41.18.45.45,0,0,0,.28-.09A.66.66,0,0,0,61.52,47.06Zm0-.71a.72.72,0,0,0-.16-.47.51.51,0,0,0-.75,0,.65.65,0,0,0-.15.46Z"/><path class="cls-10" d="M63.58,47.91,62.5,45.24h.74l.5,1.36.15.46c0-.12.06-.19.07-.23L64,46.6l.51-1.36h.73l-1.07,2.67Z"/><path class="cls-10" d="M65.71,44.87v-.65h.71v.65Zm0,3V45.24h.71v2.67Z"/><path class="cls-10" d="M68.7,47.06l.7.12a1.1,1.1,0,0,1-.43.59,1.21,1.21,0,0,1-.73.21,1.23,1.23,0,0,1-1-.46,1.56,1.56,0,0,1-.26-.92,1.5,1.5,0,0,1,.35-1.05,1.13,1.13,0,0,1,.88-.37,1.19,1.19,0,0,1,.94.39,1.75,1.75,0,0,1,.33,1.21H67.67a.69.69,0,0,0,.17.49.52.52,0,0,0,.41.18.45.45,0,0,0,.28-.09A.66.66,0,0,0,68.7,47.06Zm0-.71a.72.72,0,0,0-.16-.47.51.51,0,0,0-.75,0,.65.65,0,0,0-.15.46Z"/><path class="cls-10" d="M70.52,47.91l-.85-2.67h.69l.5,1.75.46-1.75H72L72.45,47,73,45.24h.69l-.86,2.67h-.68l-.46-1.72-.45,1.72Z"/><path class="cls-10" d="M97.27,47.91V44.22H98v3.69Z"/><path class="cls-10" d="M101.16,47.91h-.71V46.55a2,2,0,0,0,0-.56.43.43,0,0,0-.14-.2.41.41,0,0,0-.25-.07.56.56,0,0,0-.33.1.48.48,0,0,0-.2.27,2,2,0,0,0-.06.61v1.21h-.7V45.24h.65v.39a1.09,1.09,0,0,1,.89-.45,1,1,0,0,1,.43.08.82.82,0,0,1,.29.22.71.71,0,0,1,.14.29,2.68,2.68,0,0,1,0,.48Z"/><path class="cls-10" d="M103.1,45.24v.56h-.48v1.08a2.77,2.77,0,0,0,0,.38.13.13,0,0,0,.07.09.16.16,0,0,0,.12,0,.8.8,0,0,0,.28-.07l.06.55a1.4,1.4,0,0,1-.56.11.89.89,0,0,1-.34-.07.46.46,0,0,1-.23-.17.61.61,0,0,1-.1-.27,4.66,4.66,0,0,1,0-.5V45.8h-.33v-.56h.33V44.7l.71-.41v1Z"/><path class="cls-10" d="M104.27,47.91h-.7V45.24h.65v.38a1.32,1.32,0,0,1,.31-.36.52.52,0,0,1,.3-.08.88.88,0,0,1,.47.13l-.22.62a.61.61,0,0,0-.33-.12.39.39,0,0,0-.25.08.61.61,0,0,0-.17.3,4.14,4.14,0,0,0-.06.9Z"/><path class="cls-10" d="M105.44,46.54a1.42,1.42,0,0,1,.18-.69,1.18,1.18,0,0,1,.49-.5,1.41,1.41,0,0,1,.71-.17,1.35,1.35,0,0,1,1,.39,1.36,1.36,0,0,1,.39,1,1.41,1.41,0,0,1-.4,1,1.34,1.34,0,0,1-1,.4,1.61,1.61,0,0,1-.71-.17,1.08,1.08,0,0,1-.5-.49A1.55,1.55,0,0,1,105.44,46.54Zm.73,0a.89.89,0,0,0,.19.61.59.59,0,0,0,.46.21.61.61,0,0,0,.47-.21,1,1,0,0,0,.19-.62.9.9,0,0,0-.19-.6.59.59,0,0,0-.47-.22.57.57,0,0,0-.46.22A.86.86,0,0,0,106.17,46.58Z"/><path class="cls-10" d="M111.22,47.91h-.66v-.39a1,1,0,0,1-.39.34,1,1,0,0,1-.45.12,1,1,0,0,1-.79-.38,1.48,1.48,0,0,1-.33-1,1.52,1.52,0,0,1,.32-1,1,1,0,0,1,.81-.35,1,1,0,0,1,.78.37V44.22h.71Zm-1.89-1.39a1.37,1.37,0,0,0,.11.62.56.56,0,0,0,.48.28.51.51,0,0,0,.42-.21,1,1,0,0,0,.17-.62,1,1,0,0,0-.17-.67.54.54,0,0,0-.84,0A.86.86,0,0,0,109.33,46.52Z"/><path class="cls-10" d="M113.68,47.91v-.4a1,1,0,0,1-.39.34,1.06,1.06,0,0,1-.5.13,1,1,0,0,1-.48-.12.64.64,0,0,1-.31-.34,1.36,1.36,0,0,1-.1-.59V45.24h.71v1.23a3.15,3.15,0,0,0,0,.69.35.35,0,0,0,.14.2.45.45,0,0,0,.26.08.64.64,0,0,0,.33-.1.6.6,0,0,0,.2-.25,3.24,3.24,0,0,0,0-.72V45.24h.71v2.67Z"/><path class="cls-10" d="M117.41,46l-.7.12a.58.58,0,0,0-.16-.31.5.5,0,0,0-.33-.11.52.52,0,0,0-.42.19,1,1,0,0,0-.16.61,1.11,1.11,0,0,0,.16.67.54.54,0,0,0,.43.2.45.45,0,0,0,.33-.12.68.68,0,0,0,.19-.39l.69.12a1.22,1.22,0,0,1-.41.72,1.32,1.32,0,0,1-.83.25,1.24,1.24,0,0,1-.94-.38,1.66,1.66,0,0,1,0-2.05,1.21,1.21,0,0,1,.94-.37,1.29,1.29,0,0,1,.78.21A1.2,1.2,0,0,1,117.41,46Z"/><path class="cls-10" d="M119.17,45.24v.56h-.48v1.08a2.77,2.77,0,0,0,0,.38.15.15,0,0,0,.06.09.19.19,0,0,0,.12,0,.84.84,0,0,0,.29-.07l.06.55a1.43,1.43,0,0,1-.56.11,1,1,0,0,1-.35-.07.48.48,0,0,1-.22-.17.61.61,0,0,1-.1-.27,2.92,2.92,0,0,1,0-.5V45.8h-.33v-.56H118V44.7l.71-.41v1Z"/><path class="cls-10" d="M119.66,44.87v-.65h.71v.65Zm0,3V45.24h.71v2.67Z"/><path class="cls-10" d="M120.93,46.54a1.42,1.42,0,0,1,.18-.69,1.18,1.18,0,0,1,.49-.5,1.41,1.41,0,0,1,.71-.17,1.35,1.35,0,0,1,1,.39,1.36,1.36,0,0,1,.39,1,1.4,1.4,0,0,1-.39,1,1.35,1.35,0,0,1-1,.4,1.54,1.54,0,0,1-.7-.17,1.06,1.06,0,0,1-.51-.49A1.55,1.55,0,0,1,120.93,46.54Zm.73,0a.89.89,0,0,0,.19.61.61.61,0,0,0,.47.21.59.59,0,0,0,.46-.21.9.9,0,0,0,.19-.62.85.85,0,0,0-.19-.6.57.57,0,0,0-.46-.22.59.59,0,0,0-.47.22A.86.86,0,0,0,121.66,46.58Z"/><path class="cls-10" d="M126.69,47.91H126V46.55a2.17,2.17,0,0,0,0-.56.38.38,0,0,0-.15-.2.41.41,0,0,0-.25-.07.56.56,0,0,0-.33.1.54.54,0,0,0-.2.27,2.61,2.61,0,0,0-.05.61v1.21h-.71V45.24h.66v.39a1.06,1.06,0,0,1,.88-.45,1,1,0,0,1,.43.08.68.68,0,0,1,.29.22.71.71,0,0,1,.14.29,2,2,0,0,1,0,.48Z"/><path class="cls-10" d="M31.05,84.34v-.62h1.61v1.47a2.07,2.07,0,0,1-.68.4,2.41,2.41,0,0,1-.9.18,2.08,2.08,0,0,1-1-.25,1.53,1.53,0,0,1-.64-.69,2.21,2.21,0,0,1-.22-1,2.17,2.17,0,0,1,.24-1,1.67,1.67,0,0,1,.71-.68,1.83,1.83,0,0,1,.89-.19,1.79,1.79,0,0,1,1.07.29,1.28,1.28,0,0,1,.5.8l-.74.14a.74.74,0,0,0-.3-.43.84.84,0,0,0-.53-.16,1,1,0,0,0-.78.31,1.32,1.32,0,0,0-.29.92,1.48,1.48,0,0,0,.29,1,1,1,0,0,0,.77.33,1.17,1.17,0,0,0,.47-.1,1.39,1.39,0,0,0,.4-.22v-.47Z"/><path class="cls-10" d="M34.89,84.85l.71.12a1.2,1.2,0,0,1-.43.59,1.32,1.32,0,0,1-.74.2,1.2,1.2,0,0,1-1-.45,1.55,1.55,0,0,1-.27-.93,1.49,1.49,0,0,1,.35-1,1.16,1.16,0,0,1,.88-.38,1.18,1.18,0,0,1,1,.4,1.73,1.73,0,0,1,.33,1.21H33.86a.74.74,0,0,0,.17.49.57.57,0,0,0,.41.17.45.45,0,0,0,.28-.09A.55.55,0,0,0,34.89,84.85Zm0-.72a.64.64,0,0,0-.16-.46.46.46,0,0,0-.36-.16.5.5,0,0,0-.39.16.69.69,0,0,0-.15.46Z"/><path class="cls-10" d="M38.65,85.7h-.71V84.33a2.28,2.28,0,0,0,0-.56.36.36,0,0,0-.15-.19.41.41,0,0,0-.25-.07.56.56,0,0,0-.33.1.47.47,0,0,0-.2.26,2.72,2.72,0,0,0,0,.62V85.7h-.71V83h.66v.4a1,1,0,0,1,.88-.46,1,1,0,0,1,.43.09.66.66,0,0,1,.29.21.83.83,0,0,1,.14.3,2,2,0,0,1,0,.48Z"/><path class="cls-10" d="M40.92,84.85l.71.12a1.26,1.26,0,0,1-.43.59,1.34,1.34,0,0,1-.74.2,1.19,1.19,0,0,1-1-.45,1.55,1.55,0,0,1-.27-.93,1.49,1.49,0,0,1,.35-1,1.26,1.26,0,0,1,1.82,0,1.73,1.73,0,0,1,.33,1.21H39.89a.69.69,0,0,0,.17.49.55.55,0,0,0,.41.17.45.45,0,0,0,.28-.09A.62.62,0,0,0,40.92,84.85Zm0-.72a.69.69,0,0,0-.16-.46.47.47,0,0,0-.37-.16.49.49,0,0,0-.38.16.69.69,0,0,0-.15.46Z"/><path class="cls-10" d="M42.92,85.7h-.71V83h.66v.38a1.11,1.11,0,0,1,.3-.35.54.54,0,0,1,.31-.09.92.92,0,0,1,.47.14l-.22.61a.68.68,0,0,0-.34-.11.41.41,0,0,0-.25.08A.56.56,0,0,0,43,84a4.09,4.09,0,0,0-.06.89Z"/><path class="cls-10" d="M44.78,83.84l-.64-.12a1,1,0,0,1,.37-.57A1.41,1.41,0,0,1,45.3,83a1.57,1.57,0,0,1,.7.12.67.67,0,0,1,.33.28,1.51,1.51,0,0,1,.1.63v.83a3.19,3.19,0,0,0,0,.52,1.58,1.58,0,0,0,.13.36h-.7s0-.11-.07-.21a.22.22,0,0,0,0-.08,1.15,1.15,0,0,1-.83.35.92.92,0,0,1-.65-.22.79.79,0,0,1-.13-1,.84.84,0,0,1,.31-.28,2.8,2.8,0,0,1,.56-.16,3.23,3.23,0,0,0,.69-.18v-.07a.37.37,0,0,0-.1-.29.61.61,0,0,0-.38-.08.42.42,0,0,0-.47.33Zm.95.58-.43.1a1.53,1.53,0,0,0-.39.13.3.3,0,0,0-.14.25.34.34,0,0,0,.11.25.38.38,0,0,0,.29.11.62.62,0,0,0,.36-.12.49.49,0,0,0,.17-.24,1.24,1.24,0,0,0,0-.34Z"/><path class="cls-10" d="M48.35,83v.57h-.48v1.08a2.86,2.86,0,0,0,0,.38.15.15,0,0,0,.06.09.27.27,0,0,0,.12,0,1.06,1.06,0,0,0,.29-.06l.06.55a1.4,1.4,0,0,1-.56.1,1,1,0,0,1-.35-.06.48.48,0,0,1-.22-.17.66.66,0,0,1-.1-.27,3,3,0,0,1,0-.5V83.59h-.33V83h.33v-.53l.71-.41V83Z"/><path class="cls-10" d="M50.39,84.85l.71.12a1.14,1.14,0,0,1-.43.59,1.28,1.28,0,0,1-.73.2,1.22,1.22,0,0,1-1-.45,1.62,1.62,0,0,1-.26-.93,1.44,1.44,0,0,1,.35-1,1.14,1.14,0,0,1,.88-.38,1.18,1.18,0,0,1,.94.4,1.73,1.73,0,0,1,.33,1.21H49.36a.8.8,0,0,0,.17.49.57.57,0,0,0,.41.17.43.43,0,0,0,.28-.09A.49.49,0,0,0,50.39,84.85Zm0-.72a.69.69,0,0,0-.16-.46.49.49,0,0,0-.37-.16.51.51,0,0,0-.39.16.64.64,0,0,0-.14.46Z"/><path class="cls-10" d="M54.17,85.7h-.66v-.39a1,1,0,0,1-.38.34.93.93,0,0,1-.45.11,1,1,0,0,1-.79-.37,1.51,1.51,0,0,1-.33-1,1.45,1.45,0,0,1,.32-1,1,1,0,0,1,.81-.36,1,1,0,0,1,.77.38V82h.71Zm-1.89-1.4a1.25,1.25,0,0,0,.12.63.53.53,0,0,0,.48.27A.54.54,0,0,0,53.3,85a1,1,0,0,0,.17-.62,1,1,0,0,0-.17-.66.51.51,0,0,0-.43-.2.53.53,0,0,0-.42.2A.9.9,0,0,0,52.28,84.3Z"/><path class="cls-10" d="M32.2,91.9V88.2h1.57a2.86,2.86,0,0,1,.86.1.84.84,0,0,1,.43.36,1,1,0,0,1,.16.58,1,1,0,0,1-.24.69,1.19,1.19,0,0,1-.73.34,1.84,1.84,0,0,1,.4.31,3.76,3.76,0,0,1,.42.6l.45.72h-.89l-.54-.8a6,6,0,0,0-.39-.55.65.65,0,0,0-.23-.15,1.1,1.1,0,0,0-.37,0H33V91.9ZM33,89.77h.55a2.75,2.75,0,0,0,.67,0,.37.37,0,0,0,.21-.16.46.46,0,0,0,.08-.27.43.43,0,0,0-.39-.45H33Z"/><path class="cls-10" d="M37.47,91.05l.71.12a1.14,1.14,0,0,1-.43.59A1.3,1.3,0,0,1,37,92a1.19,1.19,0,0,1-1-.46,1.76,1.76,0,0,1,.08-2,1.27,1.27,0,0,1,1.83,0,1.73,1.73,0,0,1,.33,1.21H36.44a.74.74,0,0,0,.17.49.57.57,0,0,0,.41.17.43.43,0,0,0,.28-.09A.49.49,0,0,0,37.47,91.05Zm0-.72a.68.68,0,0,0-.15-.47.52.52,0,0,0-.76,0,.62.62,0,0,0-.14.46Z"/><path class="cls-10" d="M38.78,89.22h.66v.4a.9.9,0,0,1,.34-.33.92.92,0,0,1,.49-.13,1,1,0,0,1,.79.37,1.46,1.46,0,0,1,.33,1,1.53,1.53,0,0,1-.33,1,1,1,0,0,1-.79.37.91.91,0,0,1-.41-.09,1.54,1.54,0,0,1-.38-.3v1.35h-.7Zm.7,1.3a1,1,0,0,0,.18.66.53.53,0,0,0,.43.22.51.51,0,0,0,.41-.2,1,1,0,0,0,.17-.65,1,1,0,0,0-.17-.62.51.51,0,0,0-.42-.21.55.55,0,0,0-.43.2A.88.88,0,0,0,39.48,90.52Z"/><path class="cls-10" d="M41.79,90.52a1.52,1.52,0,0,1,.17-.68,1.27,1.27,0,0,1,.49-.51,1.56,1.56,0,0,1,.72-.17,1.31,1.31,0,0,1,1,.4,1.34,1.34,0,0,1,.39,1,1.39,1.39,0,0,1-.39,1,1.31,1.31,0,0,1-1,.4,1.45,1.45,0,0,1-.7-.17,1.18,1.18,0,0,1-.51-.48A1.74,1.74,0,0,1,41.79,90.52Zm.72,0a.91.91,0,0,0,.19.61.61.61,0,0,0,.47.21.59.59,0,0,0,.46-.21.88.88,0,0,0,.19-.61.86.86,0,0,0-.19-.61.59.59,0,0,0-.46-.21.61.61,0,0,0-.47.21A.93.93,0,0,0,42.51,90.56Z"/><path class="cls-10" d="M45.78,91.9h-.7V89.22h.65v.38a1.12,1.12,0,0,1,.31-.35.53.53,0,0,1,.3-.09,1,1,0,0,1,.47.13l-.22.62a.68.68,0,0,0-.33-.11.36.36,0,0,0-.25.08.53.53,0,0,0-.17.29,4.27,4.27,0,0,0-.06.9Z"/><path class="cls-10" d="M48.34,89.22v.57h-.48v1.08a3,3,0,0,0,0,.38.18.18,0,0,0,.07.09.21.21,0,0,0,.12,0,.8.8,0,0,0,.28-.07l.06.55a1.25,1.25,0,0,1-.56.11.9.9,0,0,1-.34-.06.53.53,0,0,1-.23-.17.66.66,0,0,1-.1-.28,4.66,4.66,0,0,1,0-.5V89.79h-.33v-.57h.33v-.53l.71-.41v.94Z"/><path class="cls-10" d="M48.59,91.14,49.3,91a.51.51,0,0,0,.18.31.62.62,0,0,0,.39.11.75.75,0,0,0,.41-.1.23.23,0,0,0,0-.33.75.75,0,0,0-.24-.09A4,4,0,0,1,49,90.59a.7.7,0,0,1-.31-.61A.74.74,0,0,1,49,89.4a1.27,1.27,0,0,1,.85-.24,1.49,1.49,0,0,1,.82.18.94.94,0,0,1,.37.53l-.67.12a.45.45,0,0,0-.16-.24.66.66,0,0,0-.34-.08.82.82,0,0,0-.41.08.16.16,0,0,0,0,.27,2.89,2.89,0,0,0,.67.2,2,2,0,0,1,.79.32.66.66,0,0,1,.22.52.81.81,0,0,1-.31.64,1.39,1.39,0,0,1-.91.26,1.52,1.52,0,0,1-.87-.22A1,1,0,0,1,48.59,91.14Z"/><path class="cls-10" d="M111.68,86.25v-3.7h.74v3.7Z"/><path class="cls-10" d="M113.08,83.57h.65v.36a1,1,0,0,1,.83-.42.91.91,0,0,1,.45.1.8.8,0,0,1,.31.32,1.25,1.25,0,0,1,.38-.32,1,1,0,0,1,.44-.1,1,1,0,0,1,.5.12.74.74,0,0,1,.3.35,1.49,1.49,0,0,1,.07.55v1.72h-.7V84.71a1.1,1.1,0,0,0-.08-.51.32.32,0,0,0-.3-.15.49.49,0,0,0-.47.36,1.81,1.81,0,0,0-.06.55v1.29h-.71V84.78a2.66,2.66,0,0,0,0-.51.43.43,0,0,0-.12-.17.45.45,0,0,0-.22,0,.5.5,0,0,0-.29.09.48.48,0,0,0-.19.25,1.81,1.81,0,0,0-.06.55v1.31h-.7Z"/><path class="cls-10" d="M117.7,83.57h.66V84a1.11,1.11,0,0,1,.35-.33,1,1,0,0,1,.49-.12,1,1,0,0,1,.79.36,1.49,1.49,0,0,1,.32,1,1.54,1.54,0,0,1-.32,1,1,1,0,0,1-.8.38.87.87,0,0,1-.4-.09,1.38,1.38,0,0,1-.38-.3v1.34h-.71Zm.7,1.29a1.05,1.05,0,0,0,.18.67.56.56,0,0,0,.44.21.52.52,0,0,0,.41-.19,1,1,0,0,0,.16-.65,1,1,0,0,0-.17-.63.5.5,0,0,0-.42-.2.53.53,0,0,0-.43.2A.9.9,0,0,0,118.4,84.86Z"/><path class="cls-10" d="M120.71,84.87a1.45,1.45,0,0,1,.18-.69,1.18,1.18,0,0,1,.49-.5,1.41,1.41,0,0,1,.71-.17,1.35,1.35,0,0,1,1,.39,1.48,1.48,0,0,1,0,2,1.34,1.34,0,0,1-1,.4,1.61,1.61,0,0,1-.71-.17,1.08,1.08,0,0,1-.5-.49A1.55,1.55,0,0,1,120.71,84.87Zm.73,0a.88.88,0,0,0,.19.61.59.59,0,0,0,.46.21.61.61,0,0,0,.47-.21.94.94,0,0,0,.19-.62.9.9,0,0,0-.19-.6.59.59,0,0,0-.47-.22.57.57,0,0,0-.46.22A.86.86,0,0,0,121.44,84.91Z"/><path class="cls-10" d="M124.71,86.25H124V83.57h.66V84a1.17,1.17,0,0,1,.3-.36.65.65,0,0,1,.31-.08.9.9,0,0,1,.47.13l-.22.62a.61.61,0,0,0-.34-.12.41.41,0,0,0-.25.08.6.6,0,0,0-.16.3,4.14,4.14,0,0,0-.06.9Z"/><path class="cls-10" d="M127.27,83.57v.56h-.48v1.08a2.77,2.77,0,0,0,0,.38.15.15,0,0,0,.06.09.17.17,0,0,0,.12,0,.84.84,0,0,0,.29-.07l.06.55a1.43,1.43,0,0,1-.56.11,1,1,0,0,1-.35-.07.48.48,0,0,1-.22-.16.66.66,0,0,1-.1-.28,2.6,2.6,0,0,1,0-.5V84.13h-.32v-.56h.32V83l.72-.41v.95Z"/><path class="cls-10" d="M128.29,84.38l-.64-.11a1,1,0,0,1,.37-.58,1.42,1.42,0,0,1,.79-.18,1.59,1.59,0,0,1,.7.11.67.67,0,0,1,.33.28,1.53,1.53,0,0,1,.1.64v.83a3.36,3.36,0,0,0,0,.52,1.58,1.58,0,0,0,.13.36h-.7l-.07-.21a.3.3,0,0,0,0-.09,1.33,1.33,0,0,1-.38.27,1.13,1.13,0,0,1-.45.09.92.92,0,0,1-.65-.23.75.75,0,0,1-.24-.57.77.77,0,0,1,.11-.4.74.74,0,0,1,.31-.27,2.21,2.21,0,0,1,.56-.17,4.23,4.23,0,0,0,.69-.17v-.07a.34.34,0,0,0-.1-.29.6.6,0,0,0-.38-.09.42.42,0,0,0-.47.33Zm1,.58-.43.11a1.28,1.28,0,0,0-.39.12.31.31,0,0,0-.14.25.36.36,0,0,0,.11.26.42.42,0,0,0,.29.11.63.63,0,0,0,.36-.13.42.42,0,0,0,.17-.23,1.33,1.33,0,0,0,0-.35Z"/><path class="cls-10" d="M133.07,86.25h-.71V84.88a2.17,2.17,0,0,0,0-.56.38.38,0,0,0-.15-.2.41.41,0,0,0-.25-.07.56.56,0,0,0-.33.1.54.54,0,0,0-.2.27,2.61,2.61,0,0,0,0,.61v1.22h-.71V83.57h.66V84a1.07,1.07,0,0,1,.88-.45,1,1,0,0,1,.43.08.68.68,0,0,1,.29.22.71.71,0,0,1,.14.29,2,2,0,0,1,0,.48Z"/><path class="cls-10" d="M135,83.57v.56h-.49v1.08a2.09,2.09,0,0,0,0,.38.15.15,0,0,0,.06.09.16.16,0,0,0,.12,0,.75.75,0,0,0,.28-.07l.07.55a1.47,1.47,0,0,1-.56.11,1,1,0,0,1-.35-.07.59.59,0,0,1-.23-.16.82.82,0,0,1-.1-.28,4.66,4.66,0,0,1,0-.5V84.13h-.32v-.56h.32V83l.71-.41v.95Z"/><path class="cls-10" d="M138.38,82.55h.75v2a4.41,4.41,0,0,0,0,.62.63.63,0,0,0,.23.36.81.81,0,0,0,.49.14.71.71,0,0,0,.48-.13.5.5,0,0,0,.2-.32,4.44,4.44,0,0,0,0-.63v-2h.75v1.94a5,5,0,0,1-.06.94,1.09,1.09,0,0,1-.23.47,1.18,1.18,0,0,1-.43.3,2,2,0,0,1-.71.11,2.12,2.12,0,0,1-.81-.12,1.31,1.31,0,0,1-.43-.32,1.23,1.23,0,0,1-.21-.41,4.48,4.48,0,0,1-.07-.94Z"/><path class="cls-10" d="M141.86,85.48l.71-.11a.53.53,0,0,0,.18.32.67.67,0,0,0,.39.1.71.71,0,0,0,.42-.1.22.22,0,0,0,.09-.19.21.21,0,0,0-.05-.13.66.66,0,0,0-.24-.09,3.63,3.63,0,0,1-1.08-.35.66.66,0,0,1-.32-.6.76.76,0,0,1,.27-.59,1.36,1.36,0,0,1,.86-.23,1.47,1.47,0,0,1,.81.18.9.9,0,0,1,.37.53l-.67.12a.38.38,0,0,0-.16-.24.55.55,0,0,0-.34-.08.79.79,0,0,0-.4.07.17.17,0,0,0-.08.15.16.16,0,0,0,.07.13,3.11,3.11,0,0,0,.66.2,1.94,1.94,0,0,1,.79.31.65.65,0,0,1,.22.53.8.8,0,0,1-.31.63,1.32,1.32,0,0,1-.91.27,1.46,1.46,0,0,1-.86-.23A1,1,0,0,1,141.86,85.48Z"/><path class="cls-10" d="M146.53,85.39l.71.12a1.16,1.16,0,0,1-.43.59,1.24,1.24,0,0,1-.74.21,1.21,1.21,0,0,1-1-.46,1.78,1.78,0,0,1,.08-2,1.15,1.15,0,0,1,.88-.37,1.21,1.21,0,0,1,.95.39,1.75,1.75,0,0,1,.33,1.21H145.5a.74.74,0,0,0,.17.49.54.54,0,0,0,.41.18.43.43,0,0,0,.28-.09A.54.54,0,0,0,146.53,85.39Zm0-.71a.62.62,0,0,0-.16-.47.46.46,0,0,0-.36-.16.51.51,0,0,0-.39.17.65.65,0,0,0-.15.46Z"/><path class="cls-10" d="M148.53,86.25h-.71V83.57h.66V84a1.17,1.17,0,0,1,.31-.36.61.61,0,0,1,.3-.08.9.9,0,0,1,.47.13l-.22.62a.61.61,0,0,0-.33-.12.45.45,0,0,0-.26.08.69.69,0,0,0-.16.3,4.14,4.14,0,0,0-.06.9Z"/><path class="cls-10" d="M123.18,92.44V88.75h1.57a2.56,2.56,0,0,1,.86.1.78.78,0,0,1,.43.35,1,1,0,0,1,.17.58,1,1,0,0,1-.25.69,1.19,1.19,0,0,1-.73.34,2.22,2.22,0,0,1,.4.31,3.76,3.76,0,0,1,.42.6l.46.72h-.9l-.54-.8a4.33,4.33,0,0,0-.39-.54.57.57,0,0,0-.23-.16,1.1,1.1,0,0,0-.37,0h-.15v1.54Zm.75-2.13h.55a2.75,2.75,0,0,0,.67,0,.41.41,0,0,0,.21-.15.51.51,0,0,0,.08-.28.49.49,0,0,0-.1-.3.45.45,0,0,0-.28-.15h-1.13Z"/><path class="cls-10" d="M126.74,91.07a1.53,1.53,0,0,1,.17-.69,1.15,1.15,0,0,1,.5-.5,1.41,1.41,0,0,1,.71-.18,1.37,1.37,0,0,1,1,.4,1.4,1.4,0,0,1,.38,1,1.36,1.36,0,0,1-.39,1,1.31,1.31,0,0,1-1,.4,1.56,1.56,0,0,1-.7-.16,1.21,1.21,0,0,1-.51-.49A1.7,1.7,0,0,1,126.74,91.07Zm.73,0a.86.86,0,0,0,.19.61.57.57,0,0,0,.46.22.59.59,0,0,0,.47-.22.91.91,0,0,0,.19-.61,1,1,0,0,0-.19-.61.61.61,0,0,0-.47-.21.59.59,0,0,0-.46.21A.89.89,0,0,0,127.47,91.1Z"/><path class="cls-10" d="M130.06,92.44V88.75h.71v3.69Z"/><path class="cls-10" d="M133,91.59l.71.12a1.1,1.1,0,0,1-.43.59,1.43,1.43,0,0,1-1.77-.25,1.6,1.6,0,0,1-.26-.93,1.44,1.44,0,0,1,.35-1,1.14,1.14,0,0,1,.88-.38,1.21,1.21,0,0,1,.94.4,1.75,1.75,0,0,1,.33,1.21H132a.75.75,0,0,0,.18.49.5.5,0,0,0,.4.17.43.43,0,0,0,.28-.09A.46.46,0,0,0,133,91.59Zm.05-.72a.69.69,0,0,0-.16-.46.49.49,0,0,0-.37-.16.46.46,0,0,0-.38.17.56.56,0,0,0-.15.45Z"/><path class="cls-10" d="M134.12,91.68l.71-.11a.56.56,0,0,0,.18.32.63.63,0,0,0,.39.1.67.67,0,0,0,.41-.1.22.22,0,0,0,.1-.19.19.19,0,0,0,0-.13.46.46,0,0,0-.24-.09,4.23,4.23,0,0,1-1.09-.35.69.69,0,0,1-.31-.6.75.75,0,0,1,.27-.59,1.27,1.27,0,0,1,.85-.24,1.49,1.49,0,0,1,.82.18.94.94,0,0,1,.37.53l-.67.13a.38.38,0,0,0-.16-.24.57.57,0,0,0-.34-.09.82.82,0,0,0-.41.08.19.19,0,0,0-.08.15.15.15,0,0,0,.07.12,2.44,2.44,0,0,0,.67.2,2,2,0,0,1,.79.32.68.68,0,0,1,.22.53.8.8,0,0,1-.31.63,1.34,1.34,0,0,1-.91.26,1.52,1.52,0,0,1-.87-.22A1,1,0,0,1,134.12,91.68Z"/><path class="cls-10" d="M95.93,123.22v-3.7h2.74v.63h-2V121h1.85v.63H96.68v1h2.06v.63Z"/><path class="cls-10" d="M101.81,123.22h-.71v-1.37a2,2,0,0,0,0-.56.43.43,0,0,0-.14-.2.41.41,0,0,0-.25-.07.56.56,0,0,0-.33.1.54.54,0,0,0-.2.27,2.15,2.15,0,0,0,0,.61v1.22h-.71v-2.68H100v.39a1.09,1.09,0,0,1,.89-.45,1.22,1.22,0,0,1,.43.08.74.74,0,0,1,.29.22.76.76,0,0,1,.14.3,2.64,2.64,0,0,1,0,.47Z"/><path class="cls-10" d="M105,123.22h-.66v-.4a1,1,0,0,1-.38.35,1.06,1.06,0,0,1-.45.11,1,1,0,0,1-.79-.37,1.53,1.53,0,0,1-.33-1,1.47,1.47,0,0,1,.32-1,1.05,1.05,0,0,1,.81-.35,1,1,0,0,1,.77.37v-1.33H105Zm-1.89-1.4a1.21,1.21,0,0,0,.12.62.52.52,0,0,0,.48.28.54.54,0,0,0,.42-.21,1,1,0,0,0,.17-.62,1.08,1.08,0,0,0-.17-.67.54.54,0,0,0-.43-.2.55.55,0,0,0-.42.2A.91.91,0,0,0,103.09,121.82Z"/><path class="cls-10" d="M105.6,122.23v-.71H107v.71Z"/><path class="cls-10" d="M108.63,120.54v.56h-.48v1.08a3.06,3.06,0,0,0,0,.39.16.16,0,0,0,.06.08.17.17,0,0,0,.12,0,.84.84,0,0,0,.29-.07l.06.55a1.43,1.43,0,0,1-.56.11.78.78,0,0,1-.35-.07.48.48,0,0,1-.22-.16.66.66,0,0,1-.1-.28,2.6,2.6,0,0,1,0-.5V121.1h-.32v-.56h.32V120l.72-.42v1Z"/><path class="cls-10" d="M109,121.84a1.49,1.49,0,0,1,.17-.68,1.27,1.27,0,0,1,.49-.51,1.56,1.56,0,0,1,.72-.17,1.34,1.34,0,0,1,1,.39,1.49,1.49,0,0,1,0,2,1.35,1.35,0,0,1-1,.4,1.57,1.57,0,0,1-.7-.17,1.15,1.15,0,0,1-.51-.49A1.67,1.67,0,0,1,109,121.84Zm.72,0a.93.93,0,0,0,.19.61.61.61,0,0,0,.47.21.62.62,0,0,0,.47-.21.94.94,0,0,0,.18-.62.9.9,0,0,0-.18-.6.62.62,0,0,0-.47-.21.61.61,0,0,0-.47.21A.91.91,0,0,0,109.68,121.88Z"/><path class="cls-10" d="M112.2,122.23v-.71h1.39v.71Z"/><path class="cls-10" d="M114,123.22v-3.7h2.74v.63h-2V121h1.85v.63h-1.85v1h2.06v.63Z"/><path class="cls-10" d="M119.88,123.22h-.71v-1.37a2,2,0,0,0,0-.56.43.43,0,0,0-.14-.2.41.41,0,0,0-.25-.07.56.56,0,0,0-.33.1.54.54,0,0,0-.2.27,2.15,2.15,0,0,0,0,.61v1.22h-.71v-2.68h.65v.39a1.09,1.09,0,0,1,.89-.45,1.22,1.22,0,0,1,.43.08.74.74,0,0,1,.29.22.76.76,0,0,1,.14.3,2.64,2.64,0,0,1,0,.47Z"/><path class="cls-10" d="M123.05,123.22h-.66v-.4a1,1,0,0,1-.38.35,1.06,1.06,0,0,1-.45.11,1,1,0,0,1-.79-.37,1.53,1.53,0,0,1-.33-1,1.47,1.47,0,0,1,.32-1,1.05,1.05,0,0,1,.81-.35,1,1,0,0,1,.77.37v-1.33h.71Zm-1.89-1.4a1.21,1.21,0,0,0,.12.62.52.52,0,0,0,.48.28.54.54,0,0,0,.42-.21,1,1,0,0,0,.17-.62,1.08,1.08,0,0,0-.17-.67.54.54,0,0,0-.43-.2.56.56,0,0,0-.42.2A.91.91,0,0,0,121.16,121.82Z"/><path class="cls-10" d="M97.36,125.72h.75v2a3.91,3.91,0,0,0,0,.62.57.57,0,0,0,.22.36.82.82,0,0,0,.5.14.74.74,0,0,0,.48-.13.53.53,0,0,0,.19-.32,4.44,4.44,0,0,0,0-.63v-2h.75v1.94a5,5,0,0,1-.06.94,1.1,1.1,0,0,1-.22.46,1.2,1.2,0,0,1-.44.31,2,2,0,0,1-.71.11,2.07,2.07,0,0,1-.8-.12,1.25,1.25,0,0,1-.44-.32,1.23,1.23,0,0,1-.21-.41,5.29,5.29,0,0,1-.07-.94Z"/><path class="cls-10" d="M100.84,128.65l.71-.11a.5.5,0,0,0,.19.32.63.63,0,0,0,.39.1.67.67,0,0,0,.41-.1.22.22,0,0,0,.09-.19.17.17,0,0,0,0-.13.58.58,0,0,0-.24-.09,3.63,3.63,0,0,1-1.08-.35.68.68,0,0,1-.32-.6.74.74,0,0,1,.28-.59,1.31,1.31,0,0,1,.85-.23,1.45,1.45,0,0,1,.81.18.84.84,0,0,1,.37.52l-.67.13a.35.35,0,0,0-.16-.24.55.55,0,0,0-.34-.08.79.79,0,0,0-.4.07.17.17,0,0,0-.08.15.16.16,0,0,0,.07.13,3.11,3.11,0,0,0,.66.2,1.94,1.94,0,0,1,.79.31.65.65,0,0,1,.22.53.82.82,0,0,1-.3.63,1.35,1.35,0,0,1-.91.27,1.47,1.47,0,0,1-.87-.23A1,1,0,0,1,100.84,128.65Z"/><path class="cls-10" d="M105.51,128.56l.71.12a1.1,1.1,0,0,1-.43.59,1.21,1.21,0,0,1-.73.21,1.23,1.23,0,0,1-1-.46,1.56,1.56,0,0,1-.26-.92,1.45,1.45,0,0,1,.35-1,1.13,1.13,0,0,1,.88-.37,1.2,1.2,0,0,1,.94.39,1.75,1.75,0,0,1,.33,1.21h-1.78a.75.75,0,0,0,.18.49.5.5,0,0,0,.4.18.43.43,0,0,0,.28-.09A.52.52,0,0,0,105.51,128.56Zm0-.71a.72.72,0,0,0-.16-.47.49.49,0,0,0-.37-.16.46.46,0,0,0-.38.17.57.57,0,0,0-.15.46Z"/><path class="cls-10" d="M107.51,129.42h-.7v-2.68h.65v.38a1.32,1.32,0,0,1,.31-.36.52.52,0,0,1,.3-.08.88.88,0,0,1,.47.13l-.22.62a.61.61,0,0,0-.33-.12.41.41,0,0,0-.25.08.61.61,0,0,0-.17.3,4.14,4.14,0,0,0-.06.9Z"/><path class="cls-10" d="M110.29,129.42v-3.7h1.57a2.56,2.56,0,0,1,.86.1.82.82,0,0,1,.43.35,1.06,1.06,0,0,1,.16.58,1,1,0,0,1-.24.69,1.14,1.14,0,0,1-.73.34,2.22,2.22,0,0,1,.4.31,6.6,6.6,0,0,1,.42.6l.45.73h-.89l-.54-.81a4.33,4.33,0,0,0-.39-.54.57.57,0,0,0-.23-.16,1.52,1.52,0,0,0-.37,0H111v1.55Zm.75-2.14h.55a3,3,0,0,0,.67,0,.42.42,0,0,0,.21-.16.49.49,0,0,0,.07-.28.44.44,0,0,0-.1-.3.42.42,0,0,0-.28-.14,4.59,4.59,0,0,0-.54,0H111Z"/><path class="cls-10" d="M113.85,128a1.53,1.53,0,0,1,.17-.69,1.24,1.24,0,0,1,.49-.5,1.47,1.47,0,0,1,.72-.17,1.34,1.34,0,0,1,1,.39,1.36,1.36,0,0,1,.39,1,1.4,1.4,0,0,1-.39,1,1.35,1.35,0,0,1-1,.4,1.57,1.57,0,0,1-.7-.17,1.15,1.15,0,0,1-.51-.49A1.67,1.67,0,0,1,113.85,128Zm.72,0a1,1,0,0,0,.19.61.61.61,0,0,0,.47.21.62.62,0,0,0,.47-.21,1,1,0,0,0,.18-.62.9.9,0,0,0-.18-.6.6.6,0,0,0-.47-.22.59.59,0,0,0-.47.22A.91.91,0,0,0,114.57,128.08Z"/><path class="cls-10" d="M117.17,129.42v-3.7h.71v3.7Z"/><path class="cls-10" d="M120.15,128.56l.71.12a1.16,1.16,0,0,1-.43.59,1.24,1.24,0,0,1-.74.21,1.21,1.21,0,0,1-1-.46,1.78,1.78,0,0,1,.08-2,1.15,1.15,0,0,1,.88-.37,1.21,1.21,0,0,1,.95.39,1.75,1.75,0,0,1,.33,1.21h-1.78a.74.74,0,0,0,.17.49.54.54,0,0,0,.41.18.43.43,0,0,0,.28-.09A.58.58,0,0,0,120.15,128.56Zm0-.71a.62.62,0,0,0-.16-.47.46.46,0,0,0-.36-.16.48.48,0,0,0-.39.17.65.65,0,0,0-.15.46Z"/><path class="cls-10" d="M121.22,128.65l.72-.11a.53.53,0,0,0,.18.32.63.63,0,0,0,.39.1.67.67,0,0,0,.41-.1.23.23,0,0,0,.1-.19.21.21,0,0,0,0-.13.75.75,0,0,0-.24-.09,3.74,3.74,0,0,1-1.09-.35.68.68,0,0,1-.32-.6.74.74,0,0,1,.28-.59,1.33,1.33,0,0,1,.85-.23,1.49,1.49,0,0,1,.82.18.88.88,0,0,1,.37.52l-.67.13a.4.4,0,0,0-.17-.24.53.53,0,0,0-.34-.08.82.82,0,0,0-.4.07.19.19,0,0,0-.08.15.16.16,0,0,0,.07.13,3.62,3.62,0,0,0,.66.2,1.94,1.94,0,0,1,.79.31.66.66,0,0,1,.23.53.84.84,0,0,1-.31.63,1.35,1.35,0,0,1-.91.27,1.47,1.47,0,0,1-.87-.23A1,1,0,0,1,121.22,128.65Z"/><path class="cls-10" d="M49.18,123.76v-3.7h1.57a2.91,2.91,0,0,1,.86.1.88.88,0,0,1,.43.36,1,1,0,0,1,.16.58,1,1,0,0,1-.24.69,1.22,1.22,0,0,1-.74.34,1.63,1.63,0,0,1,.4.31,3.66,3.66,0,0,1,.43.6l.45.72h-.89l-.54-.8a5.42,5.42,0,0,0-.4-.55.62.62,0,0,0-.22-.15,1.21,1.21,0,0,0-.38,0h-.15v1.54Zm.74-2.13h.55a2.86,2.86,0,0,0,.68,0,.43.43,0,0,0,.2-.15.44.44,0,0,0,.08-.28.4.4,0,0,0-.1-.3.45.45,0,0,0-.28-.15H49.92Z"/><path class="cls-10" d="M54.45,122.91l.71.12a1.26,1.26,0,0,1-.43.59,1.34,1.34,0,0,1-.74.2,1.17,1.17,0,0,1-1-.46,1.71,1.71,0,0,1,.08-2,1.26,1.26,0,0,1,1.82,0,1.73,1.73,0,0,1,.33,1.21H53.42a.69.69,0,0,0,.17.49.55.55,0,0,0,.41.17.45.45,0,0,0,.28-.09A.62.62,0,0,0,54.45,122.91Zm0-.72a.74.74,0,0,0-.16-.47.51.51,0,0,0-.37-.16.5.5,0,0,0-.38.17.69.69,0,0,0-.15.46Z"/><path class="cls-10" d="M55.75,121.08h.66v.4a1,1,0,0,1,.84-.46,1,1,0,0,1,.79.37,1.5,1.5,0,0,1,.32,1,1.58,1.58,0,0,1-.32,1,1,1,0,0,1-.8.37.87.87,0,0,1-.4-.09,1.38,1.38,0,0,1-.38-.3v1.35h-.71Zm.7,1.3a1,1,0,0,0,.18.66.54.54,0,0,0,.44.22.53.53,0,0,0,.41-.2,1,1,0,0,0,.16-.65.9.9,0,0,0-.17-.62.51.51,0,0,0-.42-.21.57.57,0,0,0-.43.2A.93.93,0,0,0,56.45,122.38Z"/><path class="cls-10" d="M58.76,122.38a1.41,1.41,0,0,1,.18-.68,1.13,1.13,0,0,1,.49-.5,1.41,1.41,0,0,1,.71-.18,1.32,1.32,0,0,1,1,.4,1.34,1.34,0,0,1,.39,1,1.36,1.36,0,0,1-.4,1,1.3,1.3,0,0,1-1,.4,1.49,1.49,0,0,1-.71-.17,1.11,1.11,0,0,1-.5-.48A1.62,1.62,0,0,1,58.76,122.38Zm.73,0a.86.86,0,0,0,.19.61.59.59,0,0,0,.46.21.61.61,0,0,0,.47-.21,1.07,1.07,0,0,0,0-1.22.61.61,0,0,0-.47-.21.59.59,0,0,0-.46.21A.88.88,0,0,0,59.49,122.42Z"/><path class="cls-10" d="M62.76,123.76h-.71v-2.68h.66v.38a1,1,0,0,1,.3-.35.56.56,0,0,1,.31-.09.92.92,0,0,1,.47.14l-.22.61a.68.68,0,0,0-.34-.11.36.36,0,0,0-.25.08.52.52,0,0,0-.16.3,4.09,4.09,0,0,0-.06.89Z"/><path class="cls-10" d="M65.32,121.08v.57h-.48v1.08a2.86,2.86,0,0,0,0,.38.24.24,0,0,0,.06.09.21.21,0,0,0,.12,0,1.06,1.06,0,0,0,.29-.06l.06.55a1.43,1.43,0,0,1-.56.1,1,1,0,0,1-.35-.06.5.5,0,0,1-.22-.17.66.66,0,0,1-.1-.28,2.48,2.48,0,0,1,0-.49v-1.17H63.8v-.57h.32v-.53l.72-.41v.94Z"/><path class="cls-10" d="M65.81,120.72v-.66h.71v.66Zm0,3v-2.68h.71v2.68Z"/><path class="cls-10" d="M69.68,123.76H69v-1.37a2.22,2.22,0,0,0,0-.56.43.43,0,0,0-.15-.2.49.49,0,0,0-.25-.07.57.57,0,0,0-.33.11.52.52,0,0,0-.2.26,2.72,2.72,0,0,0,0,.62v1.21h-.71v-2.68h.66v.4a1.06,1.06,0,0,1,.88-.46,1,1,0,0,1,.43.09.59.59,0,0,1,.29.21.69.69,0,0,1,.14.3,2,2,0,0,1,0,.48Z"/><path class="cls-10" d="M70.34,123.94l.81.1a.26.26,0,0,0,.09.19.54.54,0,0,0,.32.08.76.76,0,0,0,.41-.09.3.3,0,0,0,.14-.18.79.79,0,0,0,0-.32v-.39a1,1,0,0,1-1.66,0,1.51,1.51,0,0,1-.25-.89,1.45,1.45,0,0,1,.33-1,1,1,0,0,1,.8-.36,1,1,0,0,1,.82.44v-.38h.67v2.41a2.39,2.39,0,0,1-.08.7,1,1,0,0,1-.22.37,1,1,0,0,1-.38.21,2,2,0,0,1-.6.08,1.5,1.5,0,0,1-1-.24.72.72,0,0,1-.29-.59A.25.25,0,0,1,70.34,123.94Zm.63-1.57a1,1,0,0,0,.16.62.53.53,0,0,0,.41.2A.59.59,0,0,0,72,123a.91.91,0,0,0,.18-.61.94.94,0,0,0-.17-.61.55.55,0,0,0-.44-.21.53.53,0,0,0-.42.2A1,1,0,0,0,71,122.37Z"/><path class="cls-10" d="M49,128.76l.73-.07a.82.82,0,0,0,.27.53.76.76,0,0,0,.54.17.83.83,0,0,0,.54-.15.45.45,0,0,0,.18-.36.34.34,0,0,0-.07-.22.66.66,0,0,0-.27-.16l-.6-.16a2,2,0,0,1-.84-.37,1,1,0,0,1,.28-1.64,1.77,1.77,0,0,1,.73-.13,1.6,1.6,0,0,1,1.05.3,1.1,1.1,0,0,1,.36.82l-.74,0a.6.6,0,0,0-.21-.41.76.76,0,0,0-.47-.12A.84.84,0,0,0,50,127a.27.27,0,0,0-.12.23.28.28,0,0,0,.11.22,1.92,1.92,0,0,0,.69.25,3.82,3.82,0,0,1,.8.27,1,1,0,0,1,.41.37,1.16,1.16,0,0,1,0,1.19,1,1,0,0,1-.5.41,2.06,2.06,0,0,1-.8.13,1.58,1.58,0,0,1-1.08-.32A1.42,1.42,0,0,1,49,128.76Z"/><path class="cls-10" d="M53.84,127.28v.57h-.48v1.07a3.06,3.06,0,0,0,0,.39.24.24,0,0,0,.06.09l.12,0a.84.84,0,0,0,.29-.07l.06.55a1.43,1.43,0,0,1-.56.11A1,1,0,0,1,53,130a.56.56,0,0,1-.22-.17.66.66,0,0,1-.1-.28,2.92,2.92,0,0,1,0-.5v-1.16h-.33v-.57h.33v-.53l.71-.42v1Z"/><path class="cls-10" d="M54.86,128.1l-.64-.12a1,1,0,0,1,.37-.57,1.34,1.34,0,0,1,.79-.19,1.81,1.81,0,0,1,.71.11.7.7,0,0,1,.32.29,1.31,1.31,0,0,1,.1.63v.83a3.27,3.27,0,0,0,0,.52,2.28,2.28,0,0,0,.13.36H56l-.07-.21s0-.07,0-.08a1.4,1.4,0,0,1-.39.26A1.12,1.12,0,0,1,55,130a.93.93,0,0,1-.66-.23.74.74,0,0,1-.23-.56.72.72,0,0,1,.11-.41.66.66,0,0,1,.3-.27,2.26,2.26,0,0,1,.56-.16,5.21,5.21,0,0,0,.69-.18v-.07a.35.35,0,0,0-.1-.29.59.59,0,0,0-.38-.09.43.43,0,0,0-.47.34Zm1,.57a3.61,3.61,0,0,1-.43.11,1.28,1.28,0,0,0-.39.12.3.3,0,0,0-.13.25.33.33,0,0,0,.11.26.38.38,0,0,0,.28.11.55.55,0,0,0,.36-.13.38.38,0,0,0,.17-.23,1.33,1.33,0,0,0,0-.35Z"/><path class="cls-10" d="M59.64,130h-.71v-1.37a2.22,2.22,0,0,0,0-.56.43.43,0,0,0-.15-.2.49.49,0,0,0-.25-.07.64.64,0,0,0-.33.1.6.6,0,0,0-.2.27,2.72,2.72,0,0,0-.05.62V130H57.2v-2.68h.66v.39a1.07,1.07,0,0,1,.88-.45,1.18,1.18,0,0,1,.43.08.68.68,0,0,1,.29.22.69.69,0,0,1,.14.3,2,2,0,0,1,0,.47Z"/><path class="cls-10" d="M62.82,130h-.66v-.39a1.14,1.14,0,0,1-.39.34,1.06,1.06,0,0,1-.45.11,1,1,0,0,1-.79-.37,1.83,1.83,0,0,1,0-2.08,1.08,1.08,0,0,1,.81-.35,1,1,0,0,1,.78.37v-1.33h.71Zm-1.89-1.4a1.34,1.34,0,0,0,.11.62.54.54,0,0,0,.48.28.51.51,0,0,0,.42-.21,1.29,1.29,0,0,0,0-1.28.51.51,0,0,0-.42-.21.53.53,0,0,0-.42.2A.89.89,0,0,0,60.93,128.56Z"/><path class="cls-10" d="M64.05,128.1,63.4,128a1,1,0,0,1,.38-.57,1.28,1.28,0,0,1,.78-.19,1.81,1.81,0,0,1,.71.11.79.79,0,0,1,.33.29,1.48,1.48,0,0,1,.09.63v.83a2.26,2.26,0,0,0,0,.52,1.52,1.52,0,0,0,.12.36h-.7l-.07-.21s0-.07,0-.08a1.4,1.4,0,0,1-.39.26,1.08,1.08,0,0,1-.44.09.9.9,0,0,1-.65-.23.71.71,0,0,1-.24-.56.81.81,0,0,1,.11-.41.66.66,0,0,1,.3-.27,2.23,2.23,0,0,1,.57-.16,4.57,4.57,0,0,0,.68-.18v-.07a.35.35,0,0,0-.1-.29.57.57,0,0,0-.38-.09.5.5,0,0,0-.29.08A.47.47,0,0,0,64.05,128.1Zm.94.57a3.61,3.61,0,0,1-.43.11,1.29,1.29,0,0,0-.38.12.29.29,0,0,0-.14.25.36.36,0,0,0,.11.26.39.39,0,0,0,.28.11.6.6,0,0,0,.37-.13.48.48,0,0,0,.17-.23,2.39,2.39,0,0,0,0-.35Z"/><path class="cls-10" d="M67.07,130h-.71v-2.68H67v.38a1,1,0,0,1,.3-.35.54.54,0,0,1,.31-.09.87.87,0,0,1,.46.13l-.22.62a.59.59,0,0,0-.33-.11.36.36,0,0,0-.25.08.53.53,0,0,0-.16.29,4.27,4.27,0,0,0-.06.9Z"/><path class="cls-10" d="M70.86,130H70.2v-.39a1.14,1.14,0,0,1-.39.34,1.06,1.06,0,0,1-.45.11,1,1,0,0,1-.79-.37,1.83,1.83,0,0,1,0-2.08,1.05,1.05,0,0,1,.81-.35,1,1,0,0,1,.78.37v-1.33h.71Zm-1.9-1.4a1.21,1.21,0,0,0,.12.62.54.54,0,0,0,.9.07,1,1,0,0,0,.17-.62A1,1,0,0,0,70,128a.51.51,0,0,0-.42-.21.57.57,0,0,0-.43.2A1,1,0,0,0,69,128.56Z"/><path class="cls-10" d="M71.3,129.19l.72-.1a.54.54,0,0,0,.18.31.62.62,0,0,0,.39.11.75.75,0,0,0,.41-.1.23.23,0,0,0,.09-.19.17.17,0,0,0,0-.14.59.59,0,0,0-.23-.09,3.74,3.74,0,0,1-1.09-.35.68.68,0,0,1-.32-.6.71.71,0,0,1,.28-.58,1.25,1.25,0,0,1,.85-.24,1.49,1.49,0,0,1,.82.18.9.9,0,0,1,.37.53l-.67.12a.46.46,0,0,0-.17-.24.63.63,0,0,0-.34-.08.8.8,0,0,0-.4.08.16.16,0,0,0-.08.14.16.16,0,0,0,.07.13,2.92,2.92,0,0,0,.66.2,1.94,1.94,0,0,1,.79.31.67.67,0,0,1,.23.53.81.81,0,0,1-.31.63,1.35,1.35,0,0,1-.91.27,1.47,1.47,0,0,1-.87-.22A1.06,1.06,0,0,1,71.3,129.19Z"/></svg>