<svg id="Layer_1" data-name="Layer 1" xmlns="http://www.w3.org/2000/svg" viewBox="0 0 416 422"><defs><style>.cls-1{fill:#565656;}.cls-2{fill:#494949;}.cls-3{fill:none;stroke:#4d4d4d;stroke-miterlimit:10;}.cls-4{fill:#f2f2f2;}</style></defs><path class="cls-1" d="M207.52,52.28V368.76a158.24,158.24,0,0,0,0-316.48Z"/><path class="cls-2" d="M49.28,210.52A158.24,158.24,0,0,0,207.52,368.76V52.28A158.23,158.23,0,0,0,49.28,210.52Z"/><circle class="cls-3" cx="208" cy="211" r="171.75"/><path class="cls-4" d="M130.68,238.42a62.65,62.65,0,0,0,13.13,7.18l-3,7.12a60.33,60.33,0,0,1-16.62-9.5,38.24,38.24,0,0,1-19,4.8,36.69,36.69,0,0,1-19-5.06A33.8,33.8,0,0,1,73,228.72a45.34,45.34,0,0,1-4.62-20.67A46.41,46.41,0,0,1,73,187.22a32.72,32.72,0,0,1,13.21-14.29A37.88,37.88,0,0,1,105.42,168a37.18,37.18,0,0,1,19.3,5.09,33.33,33.33,0,0,1,13.11,14.24,46.16,46.16,0,0,1,4.5,20.65,47.81,47.81,0,0,1-2.9,17.16A35.92,35.92,0,0,1,130.68,238.42Zm-22.52-13.07a37.81,37.81,0,0,1,14.61,7.38q9-8.22,9-24.73a39.36,39.36,0,0,0-3.19-16.4,24.5,24.5,0,0,0-9.34-10.89,26.73,26.73,0,0,0-32.77,3.95q-7.55,7.83-7.54,23.39,0,15.07,7.46,23.15t19.06,8.07a26.25,26.25,0,0,0,10.34-2.06,33.34,33.34,0,0,0-10.13-4.43Z"/><path class="cls-4" d="M229.08,237.58a32.41,32.41,0,0,1-10.23,7.83,27.71,27.71,0,0,1-12,2.61q-11.87,0-18.82-8a21.78,21.78,0,0,1-5.65-14.61,20.21,20.21,0,0,1,4.62-13q4.6-5.77,13.79-10.15-5.22-6-7-9.75a17.15,17.15,0,0,1-1.74-7.23,16.13,16.13,0,0,1,5.45-12.1,19.24,19.24,0,0,1,13.74-5.14q7.91,0,12.95,4.85a15.62,15.62,0,0,1,5,11.65q0,11-14.6,18.83l13.87,17.67a44.1,44.1,0,0,0,3.69-10.76l9.86,2.11a53.67,53.67,0,0,1-6.86,16.66A55.17,55.17,0,0,0,247.33,241L241,248.5A55.24,55.24,0,0,1,229.08,237.58Zm-6-7.49-17.4-21.57Q198,213.11,195.33,217a13.75,13.75,0,0,0-2.69,7.78q0,4.69,3.75,9.76a12.41,12.41,0,0,0,10.6,5.06,17.49,17.49,0,0,0,8.83-2.67A21.25,21.25,0,0,0,223.12,230.09Zm-13.34-32.8q6.18-3.63,8-6.38a10.76,10.76,0,0,0,1.82-6.06,8.73,8.73,0,0,0-2.5-6.46,8.5,8.5,0,0,0-6.25-2.51,8.84,8.84,0,0,0-6.41,2.48,8.09,8.09,0,0,0-2.56,6.06,9,9,0,0,0,.92,3.78,20.23,20.23,0,0,0,2.77,4.19Z"/><path class="cls-4" d="M273.7,246.7l29.69-77.3h11l31.64,77.3H334.39l-9-23.41H293.05l-8.49,23.41ZM296,215h26.21l-8.07-21.41q-3.69-9.77-5.48-16a98.35,98.35,0,0,1-4.17,14.76Z"/></svg>