<svg id="Layer_1" data-name="Layer 1" xmlns="http://www.w3.org/2000/svg" viewBox="0 0 300 300"><defs><style>.cls-1{fill:#777e7f;}.cls-2{fill:#6a7172;}.cls-3{fill:#6ea3a3;}.cls-4{fill:#e5a548;}.cls-5{fill:#bf4949;}.cls-6{fill:#f2f2f2;}.cls-7{fill:#d5dfe2;}</style></defs><path class="cls-1" d="M12.65,149.6q0-66.87-.07-133.76c0-2.59.39-3.26,3.17-3.26q134.15.15,268.3,0c2.38,0,3.37.07,3.37,3.05q-.17,134.34,0,268.69c0,2.34-.39,3.06-2.95,3.06q-134.34-.14-268.69,0c-2.8,0-3.16-.71-3.16-3.28Q12.73,216.88,12.65,149.6Z"/><path class="cls-2" d="M271.26,183c2.8,9.47.62,23.89-11,31.69-16.43,11-34.68,17.08-53.87,20.4-47.63,8.25-94.92,7.81-141.42-7.12a97.54,97.54,0,0,1-26.26-13c-10.67-7.5-15.22-20-11.95-32.74,1.22.17,1.72,1.11,2.13,2.08,4,9.25,11.57,14.67,20.14,18.89,14.79,7.28,30.67,11,46.79,13.88,23.67,4.26,47.57,4.7,71.45,3.8a249.85,249.85,0,0,0,60.62-9.47c10-2.92,19.82-6.58,28.67-12.38,5.37-3.53,9.83-7.75,12.35-13.78C269.34,184.14,269.78,183,271.26,183Z"/><path class="cls-3" d="M271.26,183c-.76,7-5.23,11.57-10.45,15.43-14.12,10.42-30.56,15.31-47.42,18.58-47.72,9.25-95.31,9-142.52-3.47-11.28-3-22.14-7.18-31.79-13.95-6.15-4.31-11.15-9.51-12.35-17.38,3.42-9.79,11.67-14.38,20.2-18.54,3.62-1.76,7.51-2.94,11.28-4.39,2.58,1.7,1.62,4.23,1.54,6.55-1.21,2.53-3.66,3.9-5.57,5.78-6.65,6.56-6.43,13.53.87,19.39,8.13,6.53,17.8,9.82,27.67,12.45C100,208,117.54,210,135.33,211a263.88,263.88,0,0,0,32.44-.27c21.58-1.35,42.9-4.28,63.1-12.58,5.47-2.25,10.61-5.08,14.65-9.55,4.38-4.84,4.44-9.67.48-14.81-1.81-2.35-4.35-4-5.79-6.68-.05-2.65-1.15-5.51,1.54-7.59,8.07,3.25,16.1,6.59,22.76,12.42C267.89,174.93,270.59,178.34,271.26,183Z"/><path class="cls-4" d="M130.73,104c4.4-2,9.09-2,13.79-1.91.95,0,2.39.51,2.67-.84.21-1-1.1-1.24-1.88-1.68-5.7-3.26-8-8.07-6.53-13.59a11.6,11.6,0,0,1,22.41,0c1.48,5.58-.81,10.38-6.44,13.64-.75.43-2,1.19-1.91,1.61.24,1.42,1.64.89,2.58.89,4.69,0,9.4-.27,13.76,2,3.57.92,4.73,2.49,4.73,6.75,0,11.15.05,22.3,0,33.45-.1,1.74-1.46,2.48-2.66,3.34a10.26,10.26,0,0,1-4,.27c-2.5-1.3-3.2-3.43-3.15-6.15.11-6.36,0-12.74,0-19.11v-.78c0,.16,0,.32,0,.48.29,8.17-.66,16.36.6,24.52.09.84.17,1.68.18,2.53a24,24,0,0,1,0,4.72,45.52,45.52,0,0,1,.19,6.91,33.6,33.6,0,0,1-.15,6.34c-.25,2.21.92,4.34.33,6.57a7.69,7.69,0,0,0-.18,1.17c-.21,7-1.4,8.15-8.74,8.25-2.5-1.73-4.48-3.77-4-7.18,0-1.4-.1-2.81-.06-4.22a43.41,43.41,0,0,1,0-5.47,39.79,39.79,0,0,1,0-6,31.17,31.17,0,0,1,0-5.55c0-1.84.14-4.12-2.4-4-2.18.09-2.14,2.23-2.08,4a31.18,31.18,0,0,1,0,5.55,41.16,41.16,0,0,1,0,6,43.25,43.25,0,0,1,0,5.46c0,1.41,0,2.81-.06,4.21.44,3.39-1.5,5.46-4,7.22-7.56,0-9-1.55-8.63-9.37a37.29,37.29,0,0,1-.17-6.6,56.91,56.91,0,0,1,.17-7,29.4,29.4,0,0,1-.13-6.22,36,36,0,0,1,.13-4.76c0-.87.11-1.73.2-2.59,1.26-7.89.29-15.85.59-23.78,0-.36,0-.73,0-1.09v1.56c0,6,0,12,0,18,0,4.5-.89,5.63-4.44,5.81-4.37.23-5.74-1-6.15-5.51.32-10.55-.73-21.11.67-31.61C126.34,107.18,127,104.38,130.73,104Z"/><path class="cls-5" d="M241.75,159.55q0,4,0,8.07c1.78,2.43,2,5.21,1.86,8.09-.32,5.11-3.81,7.65-8.82,6.48-2.46-.58-3.23-2.43-3.52-4.59-.66-4.9-1.22-9.83-.59-14.77.36-1.79-.15-3.61.11-5.39.35-2.1-.28-4.15-.48-6.22-.13-1.34-.57-2.74-2.26-2.69s-2,1.45-2.27,2.77a17.15,17.15,0,0,0-.4,4.3,28.89,28.89,0,0,1-.1,4.46c.2,3.36.87,6.7.36,10.09-.73,2,.12,4.11,0,6.17-.34,4-2,5.83-5.66,6-4.45.23-6.9-1.52-7.33-5.63a67.58,67.58,0,0,1,0-12.8c.39-2.48-.57-4.9-.39-7.37.63-1.33.1-2.73.21-4.08A219.63,219.63,0,0,0,214,118.63c0-.52,0-1,0-1.56v1.28c0,7.45,0,14.9,0,22.34,0,1.61.36,3.76-2.56,3-1.55-1.6-1.25-3.65-1.28-5.56C210,132,210,125.86,210,119.73c0-4.57.2-9.15-1.54-13.52a3,3,0,0,1,.26-2.64c3.57-3.16,8-2.77,12.26-2.94,1.36,0,3.49.78,3.93-.57.58-1.76-1.84-1.69-2.91-2.4a11.68,11.68,0,1,1,13-19.36,11.67,11.67,0,0,1,2,16.72c-1.13,1.35-2.85,2.2-4.29,3.3-.66.51-2.08.51-1.69,1.73s1.59.54,2.42.59c1.69.09,3.4,0,5.1,0,8.69.35,12.58,4.38,12.59,13s0,17.53,0,26.29c0,3-.6,5.3-4.16,5.24s-4.21-2.47-4.2-5.37c0-8.9,0-17.79,0-26.68a14.12,14.12,0,0,0-.53-2.6c-1.1.47-.8,1.49-.8,2.27Q241.62,136.22,241.75,159.55Z"/><path class="cls-5" d="M130.73,104c-3.48,4.17-4.14,9.16-4.18,14.34q-.09,12.35-.24,24.68c-1.9-.65-1.4-2.29-1.41-3.64-.05-5.87,0-11.74,0-17.62V120c0,.52,0,1,0,1.57.15,8.44-.5,16.91.75,25.34a8.14,8.14,0,0,0,.37,3.14c.28,1.61-.25,3.18-.15,4.78.31,2.37-.27,4.71-.13,7.07a49.81,49.81,0,0,1,.17,7.43,56.71,56.71,0,0,1,0,7c-.33,4.3-2.3,6.08-6.51,5.93-3.93-.13-5.68-2.08-5.66-6.29a20.56,20.56,0,0,0,.12-2.71,38.64,38.64,0,0,1,0-9.43,26,26,0,0,1-.14-6.42c-.06-2.27.41-5.43-2.64-5.5-2.84-.06-2.32,3.14-2.64,5.2a4.71,4.71,0,0,0,0,1.18c.42,2.45,0,4.89.06,7.34a39.05,39.05,0,0,1-.75,12.25c-.73,3.15-2.74,4.52-6,4.38-3.5-.15-5.41-1.63-6.11-4.86-.59-2.7.32-5.49-.59-8.14.18-3.19.42-6.39.33-9.59-.27-2.1.51-4.2,0-6.3-.44-1.1.19-2.16.11-3.24,1.3-9.18.93-18.44,1-27.68,0-.56,0-1.11,0-1.67v1.57q0,9.21,0,18.42c0,1.84.05,3.68-1.29,5.2a3.2,3.2,0,0,1-1.16.66,3.1,3.1,0,0,1-1.42,0c-5.07-.78-6.69-2.59-6.72-7.77q-.06-13.33,0-26.66c.37-3.26.21-6.84,4.45-7.94,4.34-4.14,9.8-3.59,15.12-3.67.83,0,2.07.53,2.42-.57s-1-1.27-1.71-1.68c-5.87-3.41-8.24-8.24-6.53-13.9,1.62-5.36,5.4-8.19,11-8.4a11.37,11.37,0,0,1,11.49,8.76c1.37,5.43-1,10.21-6.71,13.52-.7.41-2.1.5-1.6,1.69.2.46,1.56.56,2.4.59C121.36,100.84,126.62,100,130.73,104Z"/><path class="cls-6" d="M208.76,103.57a15,15,0,0,1,3.38,10.5c-.24,9.88-.3,19.76-.43,29.65.11,2.76-1.76,3.21-3.88,3.19-2.37,0-4-1.09-4.25-3.64-.51-5.21-.11-10.43-.22-15.65,0-2.28,0-4.56,0-6.85,0,2.22.08,4.45,0,6.66-.34,7.83.39,15.61.9,23.4,0,1.11,0,2.21,0,3.32a29.22,29.22,0,0,1-.11,6.34c.1,3.44.79,6.86.31,10.32-.66,1.53-.06,3.08-.09,4.62-.09,4.52-2,6.71-6.12,6.87-4.25.17-6.39-1.67-6.85-6.12a46,46,0,0,1,.07-9.67c.41-2.44-.57-4.91,0-7.35a9.16,9.16,0,0,0-.6-5.27c-.45-1.12-1.09-2.14-2.5-2-1.22.12-1.59,1.13-1.93,2.14a11,11,0,0,0-.45,3.44c.59,2.36.27,4.73.24,7.11,0,3.17.64,6.32.15,9.5a7.2,7.2,0,0,0-.31,2.31c-.12,4.13-1.7,5.8-5.54,5.92-4.09.14-6.09-1.55-6.47-5.58-.21-2.2-.18-4.42-.33-6.62.81-2.67,0-5.42.37-8.11a53.8,53.8,0,0,1,0-7.07,47.4,47.4,0,0,1,.08-4.77c0-1.07.06-2.14.1-3.19,1.42-8.39.51-16.86.76-25.3,0-.39,0-.78,0-1.17v1.08c0,6.4,0,12.79,0,19.19,0,1.44.42,3.3-2,3.37,0-9.38-.11-18.77,0-28.16.07-4.5-.89-8.51-3.93-11.91,4-3.92,9.11-3.2,14-3.4,1.07-.05,2.71.7,3.07-.76.27-1.12-1.34-1.29-2.21-1.77-5.26-2.91-7.63-8-6.19-13.42a11.58,11.58,0,0,1,22.39,0c1.33,5.59-1,10.57-6.21,13.42-.85.46-2.48.56-2.2,1.76.36,1.48,2,.74,3,.75C199.71,100.72,204.57,100.5,208.76,103.57Z"/><path class="cls-6" d="M90.5,104.31,87,111.66a6.29,6.29,0,0,0-.52.91,6.83,6.83,0,0,0-.33,1.06c-.06.6-.07,1.2-.08,1.81,0,6.79-.09,13.58.08,20.36-.07,1.87-.09,3.74,0,5.6-.37,3,.75,5.91.67,8.9a31.5,31.5,0,0,0,.32,5.57,34.2,34.2,0,0,1,.3,7.22,68.2,68.2,0,0,1-.53,15c-.58,3.84-2.82,5.85-6.28,5.69s-5.78-2.61-6.21-6.28c-.35-3,.41-5.95,0-8.92s.17-6.16,0-9.24c-.63-1.47.29-2.91.09-4.36a16.92,16.92,0,0,1-.59-3.4,2.15,2.15,0,0,0-1.9-2.13c-1.45-.13-2,.93-2.31,2.12a17.12,17.12,0,0,0-.51,5c.25,1.7-.33,3.4,0,5.11.87,5-.62,10.12.64,15.12-.41,1.49-.42,3.09-1.38,4.4C66,183.28,63.32,184.77,60,183s-3.65-4.8-3.71-8c0-3-.09-6,1.93-8.55,0-2.4,0-4.8,0-7.2q.18-22.9.33-45.82a3.27,3.27,0,0,0-.63-1.64c-1.2.25-.92,1.33-.92,2.14q-.06,13.33,0,26.65c0,2.88,0,5.76-4,5.81-4.19.05-4.27-2.83-4.24-5.93.06-8.23,0-16.47,0-24.7,0-9.85,3.86-13.6,13.83-13.69,2.14,0,5.53,1.06,6.15-.64.79-2.2-2.87-2.13-4.29-3.51-3.89-3.77-5.16-8.16-3.29-13.18,2-5.31,6.14-7.63,11.69-7.27A10.61,10.61,0,0,1,83,85.86c1.4,5.26-.31,9.74-5,13-1.15.8-3.81.67-3.13,2.66.51,1.47,2.82.56,4.31.61C83.11,102.22,87.1,101.7,90.5,104.31Z"/><path class="cls-7" d="M58.19,166.47c0,2.7,0,5.41.07,8.11.08,7.22,2.41,8.72,9.16,5.89a2.66,2.66,0,0,1,2.29,1.29c5.14,8.13,13.57,11.16,22,13.92,12.23,4,24.91,5.66,37.71,6.62,22.78,1.72,45.39.87,67.75-4.09a87.41,87.41,0,0,0,21.4-7.46,25.4,25.4,0,0,0,6.4-4.47c3.82-3.77,4.33-7.35,1.59-12-1-1.64-1.81-3.35-2.7-5V159.21c3.31-1.68,5.76-.81,8.35,3,.05,4.67.12,9.33.14,14,0,3.07,1.51,4.45,4.57,4.45s4.52-1.43,4.55-4.48c0-2.84.17-5.69.26-8.53,12.47,8.15,12.61,18.65.1,26.86-13.19,8.65-28.24,12.26-43.51,14.69-40.32,6.43-80.43,6-120.06-5a75.89,75.89,0,0,1-20.82-8.94C43.27,186.22,43.56,175,58.19,166.47Z"/><path class="cls-3" d="M175.74,169.71c0,1.8.06,3.61,0,5.42-.08,3.06.59,5.41,4.34,5.47,4,.07,4.72-2.37,4.56-5.61,0-.51,0-1,0-1.55,2.38-1.62,3.92-.09,5.3,1.54a6.44,6.44,0,0,1,1,7.59c-1.59,3.09-4.43,4.68-7.42,6.07-8.35,3.86-17.34,4.89-26.31,5.47-12,.78-24,.3-35.71-3.07-4.16-1.2-8.23-2.62-11.62-5.42-4.22-3.48-3.27-10.9,1.62-13.42,1.29-.66,2.44-.86,3.61.13.78,2.49-1,5.62,1.77,7.58a5.55,5.55,0,0,0,5.22.35c1.68-.58,2.17-2,2.18-3.74,0-2.45.12-4.91.18-7.36,2.9-3.54,8.77-4.47,12.07-1.9,0,2.1,0,4.19,0,6.29-.84.81-1.48,1.79-2.38,2.57-2.86,2.5-2.75,3.93.71,5.2a42.61,42.61,0,0,0,30.33,0c3.34-1.24,3.57-2.88.82-4.87a14.63,14.63,0,0,1-2.54-2.88c0-2.06,0-4.12,0-6.18C166.88,164.94,173,166.1,175.74,169.71Z"/><path class="cls-7" d="M163.46,173.55c3.16,1.16,8.2,1,8.12,5.2-.07,4.06-4.92,4.34-8.23,5.08a60.3,60.3,0,0,1-26.7,0c-3.32-.75-8.17-1-8.25-5.06-.08-4.19,4.93-4.08,8.12-5.21-.08,4.76-.14,9.51,6.95,8.19a16.47,16.47,0,0,1,13.08.06C163.57,183,163.56,178.32,163.46,173.55Z"/><path class="cls-1" d="M124.47,146.87c-.06-11.33-.13-22.67-.15-34,0-.79-.43-1.9.88-2.25a11.64,11.64,0,0,1,.55,2.41c0,8.6,0,17.21,0,25.81a35.39,35.39,0,0,0,.51,4.2c1,2.75,3,3.94,5.8,3.36,3-.64,3-3.14,3-5.58q0-13.31,0-26.62c0-.81-.39-2.22.76-2.26,1.33-.05.74,1.38.74,2.13,0,10.82-.06,21.65-.11,32.48C132.55,149,128.53,148.62,124.47,146.87Z"/><path class="cls-7" d="M136.51,167.26l-12.07,1.9v-7.45c2.85-3.25,9.1-3.84,12.07-1.14Z"/><path class="cls-7" d="M175.74,169.71l-12.27-2.34v-6.7a10.67,10.67,0,0,1,12.29,1.09Z"/><path class="cls-3" d="M175.75,161.76l-12.29-1.09c0-2.2,0-4.41,0-6.61,3.35-2.37,9.83-1.76,12.27,1.14Z"/><path class="cls-3" d="M136.51,160.57l-12.07,1.14v-6.8c3-2.87,9.1-3.33,12.07-.9Z"/><path class="cls-1" d="M173.08,144.15c1.21-1.41,1.09-3.12,1.09-4.82,0-8.87,0-17.73,0-26.6,0-.81.39-2.33.62-2.33,1.46,0,.93,1.21.92,2q0,17.4-.13,34.8c-2.1,1.53-4,2-5.22-1A3.59,3.59,0,0,0,173.08,144.15Z"/><path class="cls-7" d="M136.51,154l-12.07.9c0-1.71,0-3.43,0-5.14,3.88-2.88,8-2,12.06-.65Z"/><path class="cls-7" d="M175.74,155.2l-12.27-1.14v-4.85a12.12,12.12,0,0,1,12.28.68Z"/><path class="cls-1" d="M163.46,146.76c0-10.67-.1-21.35-.1-32,0-.93-.47-2.67.72-2.6,1.47.08.77,1.86.78,2.86.07,8.73.1,17.45,0,26.18a6.42,6.42,0,0,0,2.29,5.48C166,148.2,164.73,147.93,163.46,146.76Z"/><path class="cls-3" d="M156.55,181.8a37.08,37.08,0,0,1-13.08-.06c2.34-1.27,2.18-3.63,2.51-5.77,3.09-2.34,4.91-2.35,8,0C154.32,178.13,154.28,180.47,156.55,181.8Z"/><path class="cls-3" d="M146,160.17v-6.34q4-3.33,8,0v6.34C150.88,162.46,149.1,162.47,146,160.17Z"/><path class="cls-7" d="M146,160.17h8c0,2.16,0,4.31,0,6.47-2.69,2.09-5.37,2.19-8-.08C146,164.43,146,162.3,146,160.17Z"/><path class="cls-7" d="M154,153.83h-8c-.47-3.34-.73-6.34,4.22-6.23S154.34,150.78,154,153.83Z"/><path class="cls-3" d="M146,166.56l8,.08c0,1.85,0,3.69,0,5.53-2.67,2.09-5.35,2-8,0Z"/><path class="cls-3" d="M163.46,146.76l3.69-.11,3.24-.44c1.53,1.44,3.51.46,5.22,1,0,.9.09,1.8.13,2.7l-12.28-.68Z"/><path class="cls-3" d="M136.51,149.12l-12.06.65c0-1,0-1.93,0-2.9l12-.33C136.5,147.4,136.51,148.26,136.51,149.12Z"/><path class="cls-7" d="M146,172.21l8,0c0,1.26,0,2.52,0,3.78l-8,0Z"/><path class="cls-3" d="M223.9,169.28c9.09,6.3,9.29,14,.22,20.37-10.88,7.62-23.56,10.53-36.36,12.46-33.14,5-66.09,4.76-98.49-5.1a50.92,50.92,0,0,1-14.48-6.81c-3.49-2.44-6.52-5.27-7.37-9.73.07-1.3.15-2.61.22-3.91.87-3,1.58-6.05,4.39-8.05,1.38-1,2.61-1.58,4.12-.41,0,2.86.13,5.72,0,8.57-.08,3.09,1,5.05,4.36,5.16,3.58.13,4.75-2,4.81-5.18.07-4.53.2-9.07.31-13.61,3-3.85,7.69-5.24,11.66-3.49,0,3.18,0,6.37,0,9.55a14.79,14.79,0,0,1-3.92,4.78c-4.14,3.68-4,7.74.23,11.28s9.1,5.18,14.15,6.5a163.18,163.18,0,0,0,82.92,0,35.87,35.87,0,0,0,13.44-6.21c4.3-3.37,4.77-6.94,1.26-11-1.13-1.31-1.82-2.84-2.8-4.21,0-3.34,0-6.69,0-10,3.47-2.09,8.65-.5,11.78,3.62.1,4.05.23,8.09.29,12.13.05,3.18,1.43,4.84,4.79,4.75,3.17-.09,4.44-1.63,4.34-4.7C223.72,173.72,223.86,171.5,223.9,169.28Z"/><path class="cls-1" d="M202.71,150.32c-.09-12.65-.2-25.31-.26-38,0-.65-.3-1.89.7-1.83,1.27.07.82,1.41.83,2.22q.06,13.71,0,27.42c0,1.9.09,3.78,2.13,4.63s4.06,1,5.59-1.08c2.24-.8,1.5-2.75,1.51-4.26.08-9,0-18,.08-27,0-.67.39-1.85.74-1.91.83-.13.72.79.72,1.39q-.16,20.16-.34,40.31C211,154.14,205.42,153.23,202.71,150.32Z"/><path class="cls-1" d="M223.9,154.51c0-1.7-.15-3.4-.11-5.09.08-2.91,1.67-4.2,4.55-4.13s4.07,1.44,4,4.15c0,2.35-.09,4.7-.13,7C229,158.26,226.93,157.78,223.9,154.51Z"/><path class="cls-7" d="M214.37,163.76l-11.78-3.62,0-6.44c3.57-2.06,8.51-1,11.8,2.49Z"/><path class="cls-3" d="M223.9,154.51l8.35,2v5.7l-8.35-3Z"/><path class="cls-3" d="M214.42,156.19l-11.8-2.49.09-3.38,11.71,1.91Z"/><path class="cls-7" d="M202.63,170.17c3.84,2,7.46,4.41,7.65,9.13s-3.59,7.36-7.29,9.38c-12.83,7-27,8.81-41.22,9.72-18.84,1.2-37.6.33-55.87-5.18a44.44,44.44,0,0,1-12.45-5.59c-7.42-5.06-7.48-11.11-.16-16.18,1.28-.89,2.7-1.57,4.06-2.35.05,2.2.18,4.41.15,6.61,0,3.13,1.13,4.91,4.53,4.92s4.7-1.59,4.7-4.78c0-3.5.1-7,.16-10.51,2.85-3.47,5-4,8.21-2.06q0,4.51,0,9.05c-3.12,1.63-6.78,3-6.68,7.31.09,4,3.49,5.83,6.63,7a98.51,98.51,0,0,0,68.22-.05c3.17-1.14,6.47-3,6.6-7,.11-3.26-2.32-5.05-5.22-6.09l.15-9.76c3.43-1.74,5.19-1.29,8.36,2.12,0,3.24,0,6.47.08,9.7,0,3,1.31,5,4.59,5s4.61-1.85,4.68-4.91C202.54,173.79,202.58,172,202.63,170.17Z"/><path class="cls-1" d="M85.17,112.71c.32-.68.42-1.84,1.57-.73.18,9.41,0,18.81.1,28.22.06,4.69,2.37,6.37,6.69,5.14h0a1.49,1.49,0,0,1,.68-.56c2.09-1.22,1.83-3.28,1.83-5.22,0-8.89,0-17.78,0-26.67,0-.84-.35-2.27.76-2.3s.67,1.38.67,2.13q0,18.63-.14,37.25c-3.64,3.32-9.13,4-12.06,1.55,0-3.69-.06-7.37-.1-11.06a30.12,30.12,0,0,0,0-3.68q0-12,0-24Z"/><path class="cls-7" d="M97.34,159.55,85.68,163c0-2.45,0-4.89-.05-7.34,2.52-3.15,8-4.32,11.72-2.48Z"/><path class="cls-3" d="M115.1,163.28l-8.21,2.06v-8.07c3.19-3,5.31-3.26,8.22-1.05Z"/><path class="cls-7" d="M115.1,156.22l-8.22,1.05c0-1.16-.12-2.32-.16-3.48-.11-3.17,1.08-5.4,4.57-5.26,3.33.13,4.14,2.49,4,5.38C115.25,154.68,115.16,155.45,115.1,156.22Z"/><path class="cls-3" d="M97.35,153.22,85.63,155.7c-.12-1.4-.23-2.8-.34-4.2L97.35,150Z"/><path class="cls-7" d="M93.53,145.34c-3.82,2.47-6.82,1.08-6.87-3.45-.11-10,0-19.95.08-29.91a.43.43,0,0,1,.22-.32c0,9.1.07,18.19.06,27.29C87,143.36,88.69,145.94,93.53,145.34Z"/><path class="cls-7" d="M94.2,144.77l-.68.56Z"/><path class="cls-7" d="M184.67,156.38c0-.91-.08-1.83-.1-2.74,0-2.4.35-4.73,3.24-4.94s4.55,1.8,5.2,4.38a20.21,20.21,0,0,1,.13,4.68C190.09,159.9,187.75,159.52,184.67,156.38Z"/><path class="cls-3" d="M184.67,156.38l8.47,1.38q0,4,0,8l-8.36-2.12Z"/><path class="cls-7" d="M76.15,168.1c-3.92,1.74-6.4,4.91-8.51,8.46q0-7.59,0-15.19c2.79-3.69,5.09-4.44,8.55-2.8Z"/><path class="cls-1" d="M67.67,155.89c0-1.44,0-2.88-.09-4.31-.21-3.12.88-5.12,4.31-5.12s4.54,2,4.33,5.12c0,.78-.08,1.56-.12,2.34C73.38,157.36,71.36,157.83,67.67,155.89Z"/><path class="cls-3" d="M67.67,155.89l8.43-2c0,1.55,0,3.1.05,4.65l-8.55,2.8C67.62,159.54,67.64,157.71,67.67,155.89Z"/><path class="cls-7" d="M85.2,136.77c0,1.23,0,2.47,0,3.69C85.19,139.22,85.19,138,85.2,136.77Z"/><path class="cls-7" d="M85.17,112.71l0,.05Z"/></svg>