<svg id="Layer_1" data-name="Layer 1" xmlns="http://www.w3.org/2000/svg" viewBox="0 0 300 300"><defs><style>.cls-1{fill:#4d9850;}.cls-2{fill:#417b41;}.cls-3{fill:#7f3b1c;}.cls-4{fill:#b0856e;}.cls-5{fill:#fff;}.cls-6,.cls-7,.cls-8{fill:none;}.cls-7,.cls-8{stroke:#3a3b3d;stroke-miterlimit:10;}.cls-7{stroke-width:7px;}.cls-8{stroke-width:5px;}.cls-9{fill:#3a3b3d;}.cls-10{fill:#95949a;}.cls-11{fill:#a1a1a9;}.cls-12{fill:#1a1a1a;}.cls-13{fill:#bdbdbe;}.cls-14{fill:#a2a1a9;}.cls-15{fill:#519e53;}</style></defs><g id="Background"><path class="cls-1" d="M194.12,18.58l95.59,92.67V18.72a8.45,8.45,0,0,0-8.43-8.43H18.72a8.45,8.45,0,0,0-8.43,8.43V281.28a8.45,8.45,0,0,0,8.43,8.43H135.09L106.7,262.18Z"/><path class="cls-2" d="M194.12,18.58,106.7,262.18l28.39,27.53H281.28a8.45,8.45,0,0,0,8.43-8.43v-170Z"/></g><g id="Clipboard_and_Paper" data-name="Clipboard and Paper"><path class="cls-3" d="M256.49,210.74,199.08,25.24A12.56,12.56,0,0,0,183.43,17L55.23,56.67A12.55,12.55,0,0,0,47,72.32l57.41,185.5A12.55,12.55,0,0,0,120,266.07l128.2-39.68A12.55,12.55,0,0,0,256.49,210.74Zm-55.12,4.68c-.51,5.41-1.68,11.51-5.24,15.8-5.52,6.63-23.82,3.68-29.43-4.5-3.69-5.4-4.55-15.45-1.86-21.5,2-4.39,10.47-3.4,14.26-3.35a43.17,43.17,0,0,1,16.05,3.64c2.17.93,4.07,1.94,5.37,4a6.53,6.53,0,0,1,.85,2A12.25,12.25,0,0,1,201.37,215.42Z"/><path class="cls-4" d="M200.52,209.5c-1.3-2.05-3.2-3.06-5.37-4a43.17,43.17,0,0,0-16.05-3.64c-3.79-.05-12.3-1-14.26,3.35-2.69,6.05-1.83,16.1,1.86,21.5,5.61,8.18,23.91,11.13,29.43,4.5,3.56-4.29,4.73-10.39,5.24-15.8a12.25,12.25,0,0,0,0-3.92A6.53,6.53,0,0,0,200.52,209.5Z"/><path class="cls-5" d="M239.51,191.62,194,44.67a12.54,12.54,0,0,0-15.64-8.25L70.11,69.93a12.56,12.56,0,0,0-8.25,15.65l45.48,146.94A12.53,12.53,0,0,0,123,240.77l44.18-13.67,0-.06c-3.69-5.39-4.54-15.44-1.85-21.49,2-4.39,10.47-3.41,14.26-3.35a43.16,43.16,0,0,1,16,3.64c2.17.92,4.07,1.94,5.37,4a6.3,6.3,0,0,1,.85,2,12.23,12.23,0,0,1,0,3.92c0,.22,0,.44-.07.65l29.54-9.14A12.53,12.53,0,0,0,239.51,191.62Z"/><path class="cls-6" d="M196.54,231.54c3.42-4.11,4.63-9.89,5.18-15.14l-34.56,10.7C172.81,235.24,191,238.16,196.54,231.54Z"/><path class="cls-5" d="M201.78,211.83a6.3,6.3,0,0,0-.85-2c-1.3-2.05-3.2-3.07-5.37-4a43.16,43.16,0,0,0-16-3.64c-3.79-.06-12.31-1-14.26,3.35-2.69,6-1.84,16.1,1.85,21.49l0,.06,34.56-10.7c0-.21.05-.43.07-.65A12.23,12.23,0,0,0,201.78,211.83Z"/></g><g id="Paper_content" data-name="Paper content"><rect class="cls-7" x="97.47" y="74.02" width="84.35" height="52.29" transform="matrix(0.96, -0.3, 0.3, 0.96, -23.37, 45.77)"/><line class="cls-8" x1="107.53" y1="170.44" x2="205.8" y2="141.29"/><line class="cls-8" x1="104.3" y1="160.66" x2="202.57" y2="131.5"/><line class="cls-8" x1="110.76" y1="181.33" x2="209.03" y2="152.17"/><line class="cls-8" x1="114.55" y1="194.1" x2="212.82" y2="164.94"/><path class="cls-9" d="M166.89,205.41l-19.42,5.76a26.67,26.67,0,0,1-1.48,3.37l19.42-5.76a16.8,16.8,0,0,1,.84-2.39A4.24,4.24,0,0,1,166.89,205.41Z"/><path class="cls-9" d="M180.51,203.08c1.12,0,2.25.1,3.37.22l36.76-10.91-.8-2.69L175.18,203C177.21,202.92,179.16,203.06,180.51,203.08Z"/><path class="cls-6" d="M121.57,218.86l25.9-7.69a21.2,21.2,0,0,0,1.42-8.69c-.38-4.63-8.39-6.39-11.84-7.52a40.86,40.86,0,0,0-15.66-1.68c-2.26.17-4.3.5-6.12,2a6.09,6.09,0,0,0-1.4,1.56,11.79,11.79,0,0,0-1.24,3.58c-1.24,5.11-2.11,11.05-.24,16.08,2.91,7.78,20.39,10.8,28,5.07a20.58,20.58,0,0,0,5.56-7l-23.62,7Z"/><path class="cls-10" d="M121.57,218.86l.8,2.69,23.62-7a26.67,26.67,0,0,0,1.48-3.37Z"/><path class="cls-6" d="M201.92,210.63c-1.29-2-3.2-3-5.37-3.95a45.25,45.25,0,0,0-12.67-3.38l-18.47,5.48c-1.6,6-.54,14.21,2.7,18.89,5.6,8.11,23.9,11,29.42,4.46,3.57-4.24,4.73-10.29,5.25-15.64a12,12,0,0,0,0-3.88A6.11,6.11,0,0,0,201.92,210.63Z"/><path class="cls-6" d="M166.89,205.41l8.29-2.46C172,203,168.57,203.46,166.89,205.41Z"/><path class="cls-10" d="M180.51,203.08c-1.35,0-3.3-.16-5.33-.13l-8.29,2.46a4.24,4.24,0,0,0-.64,1,16.8,16.8,0,0,0-.84,2.39l18.47-5.48C182.76,203.18,181.63,203.1,180.51,203.08Z"/></g><g id="Glasses"><path class="cls-11" d="M113.81,197.47c.07.12,5.27-.47,5.67-.47a28.24,28.24,0,0,1,11.68,2.31c6.63,3,13.79,4.51,20.85,6.08,3.59.8,7.23,1.56,10.74,2.67s7.1,1.29,10.6,2.22c6.68,1.78,10.56,6.74,15,11.65q4.27,4.73,8.47,9.53l2.43-2.69q-2.91-3.74-5.93-7.38a103.5,103.5,0,0,0-9.44-9.41c-5.5-5.12-13.71-7.08-20.64-9.85l-19.38-4.19L127,193.16l-12.19-1.28L112.45,195Z"/><path class="cls-11" d="M109.56,211.49a2,2,0,0,1,.4-.3c4.27-2.65,8.48-5.55,13.07-7.64a27.41,27.41,0,0,1,11.63-2.69c4.44,0,8.8,1.08,13.22,1.38,4,.27,8,.44,12,.71l9.58.7,15.68,1,7.51.93,9.35,2.19c.36.08,1.19,2.4,1.39,2.81a3,3,0,0,1-1.58,1,3.47,3.47,0,0,1-.72,0c-5.61-.62-11.23-1.15-16.84-1.7-8.64-1.22-17.2-2.76-25.88-3.68l-8.59-1.08c-6.36-.8-13-1.66-19.37-.13-3.35.8-6.05,2.6-9,4.28-3.79,2.16-7.63,4.22-11.4,6.42l-.52-3.35a1.14,1.14,0,0,1,0-.66A.59.59,0,0,1,109.56,211.49Z"/><path class="cls-6" d="M137.53,195.46A40.88,40.88,0,0,0,122.11,193c-2.24,0-4.28.27-6.14,1.61a6.06,6.06,0,0,0-1.45,1.46,11.67,11.67,0,0,0-1.38,3.44c-1.43,4.93-2.55,10.71-.9,15.72,2.55,7.77,19.72,11.61,27.53,6.39,5.15-3.44,9.42-12,9.17-18.22C148.75,198.87,140.89,196.74,137.53,195.46Z"/><path class="cls-6" d="M200.85,212.18a5.91,5.91,0,0,0-.81-1.9c-1.23-1.93-3-2.89-5.1-3.77a41.07,41.07,0,0,0-15.23-3.44c-3.6,0-11.68-1-13.54,3.17-2.55,5.72-1.74,15.22,1.77,20.33,5.32,7.74,22.69,10.52,27.94,4.25,3.38-4,4.49-9.82,5-14.94A11.73,11.73,0,0,0,200.85,212.18Z"/><path class="cls-12" d="M210.3,207.06c-10.79-3.57-22.27-7.35-33.64-8.28-4.12-.34-8,1.19-12.11,1.5a32.48,32.48,0,0,1-5.83-.24,19.84,19.84,0,0,1-8.77-3.1c-2.57-1.61-5.06-3.44-8-4.34-10.9-3.34-23-4.08-34.31-4.76l-1.3,6.52c3.47,1.88,2.89,4.8,2.89,4.8s-1.72,10.33-1.41,13.64c.94,9.87,15.5,15.41,24.14,14.06,6.9-1.07,14.36-4.18,17.77-10.64.92-1.74,1.18-3.74,1.94-5.54a5.16,5.16,0,0,1,1.47-2.22,13,13,0,0,1,3.72-1.29.82.82,0,0,1,.35,0,.76.76,0,0,1,.31.13,12.09,12.09,0,0,1,2.77,2,4.2,4.2,0,0,1,.65,2.49c.07,2-.47,4-.25,6.05.78,7.27,6.56,12.92,12.57,16.47,7.53,4.45,23.1,4.69,27.63-4.13,1.51-3,3.74-13.2,3.74-13.2s.54-2.92,4.46-3.39Zm-70.53,14.58c-7.81,5.22-25,1.38-27.53-6.39-1.65-5-.53-10.79.9-15.72a11.67,11.67,0,0,1,1.38-3.44,6.06,6.06,0,0,1,1.45-1.46c1.86-1.34,3.9-1.56,6.14-1.61a40.88,40.88,0,0,1,15.42,2.44c3.36,1.28,11.22,3.41,11.41,8C149.19,209.67,144.92,218.2,139.77,221.64Zm56.11,9.18c-5.25,6.27-22.62,3.49-27.94-4.25-3.51-5.11-4.32-14.61-1.77-20.33,1.86-4.16,9.94-3.22,13.54-3.17a41.07,41.07,0,0,1,15.23,3.44c2.06.88,3.87,1.84,5.1,3.77a5.91,5.91,0,0,1,.81,1.9,11.73,11.73,0,0,1,0,3.7C200.37,221,199.26,226.77,195.88,230.82Z"/><path class="cls-12" d="M108.73,211.34l-9.06,4.31a3.1,3.1,0,0,0-.89,3c.55,2.2,4.14,1.68,5.62,1,.6-.29,5.61-3.53,5.52-3.86Z"/><path class="cls-12" d="M199.26,228.77l7.39,6.79a3.09,3.09,0,0,1,0,3.09c-1.2,2-4.76.28-5.83-.9-.39-.42-4.14-4.85-4-5.13Z"/></g><g id="Clip"><path class="cls-13" d="M84.4,68.84l85.32-26.21a9.07,9.07,0,0,1,4.22-.26l-1.72-5.5a8.46,8.46,0,0,0-10.57-5.52l-79.91,25A8.45,8.45,0,0,0,76.21,67l2.36,7.51A8.87,8.87,0,0,1,84.4,68.84Z"/><path class="cls-14" d="M174.69,44.77l-.75-2.4a9.07,9.07,0,0,0-4.22.26L84.4,68.84a8.87,8.87,0,0,0-5.83,5.63l.12.39Z"/><path class="cls-13" d="M134.24,26.19a17.73,17.73,0,0,0-14.75-8.61,18,18,0,0,0-16.85,10.88c-3.1,7.29.89,13.52,3.1,20.41C105.74,38.91,117.35,30.3,134.24,26.19Z"/><path class="cls-14" d="M134.24,26.19c-16.89,4.11-28.5,12.72-28.5,22.68l32.55-10.2-2-7.57A17.7,17.7,0,0,0,134.24,26.19Z"/><circle class="cls-15" cx="116.47" cy="26.89" r="4.77"/></g></svg>